<?xml version="1.0"?>
<svg width="28" height="28" xmlns="http://www.w3.org/2000/svg" xmlns:svg="http://www.w3.org/2000/svg">
 <g class="layer">
  <title>Layer 1</title>
  <path d="m14,24.5l-1.69,-1.52c-1.97,-1.77 -3.59,-3.29 -4.87,-4.58c-1.29,-1.28 -2.31,-2.43 -3.06,-3.44c-0.76,-1.03 -1.3,-1.97 -1.61,-2.83c-0.29,-0.85 -0.44,-1.73 -0.44,-2.62c0,-1.83 0.62,-3.36 1.84,-4.58c1.23,-1.23 2.75,-1.84 4.58,-1.84c1.01,0 1.97,0.22 2.89,0.64c0.91,0.43 1.7,1.03 2.36,1.81c0.66,-0.78 1.45,-1.38 2.36,-1.81c0.92,-0.42 1.88,-0.64 2.89,-0.64c1.83,0 3.35,0.61 4.58,1.84c1.22,1.22 1.84,2.75 1.84,4.58c0,0.89 -0.16,1.77 -0.47,2.62c-0.29,0.86 -0.82,1.8 -1.57,2.83c-0.76,1.01 -1.78,2.16 -3.07,3.44c-1.28,1.29 -2.9,2.81 -4.87,4.58l-1.69,1.52zm0,-3.15c1.87,-1.67 3.4,-3.1 4.61,-4.29c1.2,-1.2 2.16,-2.24 2.86,-3.12c0.7,-0.89 1.18,-1.68 1.46,-2.36c0.27,-0.7 0.4,-1.39 0.4,-2.07c0,-1.17 -0.39,-2.14 -1.16,-2.92c-0.78,-0.78 -1.75,-1.16 -2.92,-1.16c-0.91,0 -1.76,0.26 -2.54,0.78c-0.78,0.51 -1.31,1.16 -1.6,1.96l-2.22,0c-0.29,-0.8 -0.82,-1.45 -1.6,-1.96c-0.78,-0.52 -1.63,-0.78 -2.54,-0.78c-1.17,0 -2.14,0.38 -2.92,1.16c-0.77,0.78 -1.16,1.75 -1.16,2.92c0,0.68 0.13,1.37 0.41,2.07c0.27,0.68 0.75,1.47 1.45,2.36c0.7,0.88 1.66,1.92 2.86,3.12c1.21,1.19 2.74,2.62 4.61,4.29z" fill="#f36523" id="svg_1"/>
 </g>
</svg>