<svg width="187" height="141" viewBox="0 0 187 141" fill="none" xmlns="http://www.w3.org/2000/svg">
<g clip-path="url(#clip0_208_7)">
<path d="M115.666 68.8754C110.719 68.8754 107.393 65.1577 104.165 61.5458C101.789 58.8935 99.3376 56.1506 96.2378 54.8736C90.9357 52.6974 85.1282 55.2816 78.4082 58.2815C67.1704 63.2837 53.1872 69.5176 34.3394 56.8684C27.9286 52.5689 21.7516 50.9897 15.9667 52.1836C7.36113 53.9668 2.52662 61.3191 2.48137 61.3947C2.08163 62.0218 1.24445 62.1956 0.625997 61.7951C-8.95932e-07 61.3947 -0.17347 60.5559 0.226264 59.9363C0.444986 59.5963 5.72449 51.5564 15.4237 49.5464C21.9401 48.2014 28.8035 49.9091 35.8327 54.6318C53.4437 66.4498 66.122 60.8053 77.307 55.8181C84.291 52.7049 90.8904 49.7656 97.2484 52.38C100.921 53.8837 103.584 56.8609 106.163 59.7398C109.738 63.7295 112.823 67.1752 117.816 65.8755C121.67 64.8705 125.524 63.1024 129.257 61.3871C135.796 58.3873 142.569 55.2816 149.795 55.9995C152.872 56.3017 155.813 57.2916 158.664 58.2512C159.961 58.6895 161.296 59.1353 162.609 59.5056C171.358 61.9765 179.948 58.3797 184.488 50.3398C184.85 49.69 185.673 49.4633 186.321 49.8336C186.97 50.1963 187.196 51.0199 186.827 51.6697C181.736 60.6844 171.712 64.8781 161.877 62.0974C160.504 61.712 159.132 61.2511 157.804 60.8053C154.976 59.8532 152.299 58.954 149.523 58.682C143.007 58.0397 136.867 60.8582 130.366 63.8429C126.527 65.6035 122.56 67.4246 118.48 68.4824C117.476 68.7469 116.541 68.8602 115.651 68.8602L115.666 68.8754Z" fill="#F9D4E0"/>
<path d="M115.666 91.975C110.719 91.975 107.393 88.2573 104.165 84.6454C101.789 81.9931 99.3376 79.2502 96.2378 77.9732C90.9357 75.797 85.1282 78.3888 78.4082 81.3811C67.1704 86.3833 53.1872 92.6173 34.3394 79.9681C27.9286 75.6685 21.7516 74.0893 15.9667 75.2832C7.36113 77.0664 2.52662 84.4187 2.48137 84.4943C2.08163 85.1214 1.24445 85.3028 0.625997 84.8947C-8.95932e-07 84.4943 -0.17347 83.6555 0.226264 83.0359C0.444986 82.6959 5.72449 74.656 15.4237 72.646C21.9401 71.301 28.8035 73.0087 35.8327 77.7314C53.4437 89.5494 66.122 83.9049 77.307 78.9177C84.291 75.8046 90.8904 72.8652 97.2484 75.4796C100.921 76.9833 103.584 79.9605 106.163 82.847C109.738 86.8367 112.823 90.2824 117.816 88.9827C121.67 87.9777 125.524 86.2095 129.257 84.4943C135.796 81.4944 142.569 78.3888 149.795 79.1066C152.872 79.4089 155.813 80.3988 158.664 81.3584C159.961 81.7967 161.296 82.2425 162.609 82.6128C171.358 85.0837 179.948 81.4869 184.488 73.447C184.85 72.8047 185.673 72.5705 186.321 72.9407C186.97 73.3034 187.196 74.1271 186.827 74.7769C181.736 83.7915 171.712 87.9853 161.877 85.2046C160.504 84.8192 159.132 84.3583 157.804 83.9124C154.976 82.9603 152.299 82.0611 149.523 81.7891C143.007 81.1468 136.867 83.9653 130.366 86.95C126.527 88.7107 122.56 90.5317 118.48 91.5896C117.476 91.8541 116.541 91.9674 115.651 91.9674L115.666 91.975Z" fill="#F9D4E0"/>
<path d="M115.666 112.898C110.719 112.898 107.393 109.18 104.165 105.569C101.789 102.916 99.3376 100.173 96.2378 98.8964C90.9357 96.7202 85.1282 99.312 78.4082 102.304C67.1704 107.307 53.1872 113.54 34.3394 100.891C27.9286 96.5917 21.7516 95.0125 15.9667 96.2064C7.36114 97.9897 2.52662 105.342 2.48137 105.417C2.08163 106.045 1.24445 106.218 0.625997 105.818C-8.96864e-07 105.417 -0.17347 104.579 0.226264 103.959C0.444986 103.619 5.72449 95.5792 15.4237 93.5692C21.9401 92.2167 28.8035 93.9319 35.8327 98.6546C53.4437 110.473 66.122 104.828 77.307 99.8409C84.291 96.7278 90.8904 93.7884 97.2485 96.4028C100.921 97.9065 103.584 100.884 106.163 103.77C109.738 107.76 112.823 111.206 117.816 109.906C121.67 108.901 125.524 107.133 129.257 105.417C135.804 102.418 142.577 99.312 149.802 100.03C152.879 100.332 155.828 101.322 158.679 102.282C159.969 102.72 161.311 103.166 162.624 103.536C171.373 106.007 179.963 102.41 184.504 94.3702C184.866 93.7204 185.688 93.4937 186.336 93.8639C186.985 94.2266 187.211 95.0503 186.842 95.7001C181.751 104.715 171.727 108.901 161.892 106.128C160.52 105.742 159.147 105.281 157.827 104.836C154.991 103.884 152.314 102.984 149.546 102.705C143.037 102.062 136.89 104.881 130.389 107.866C126.55 109.626 122.583 111.447 118.51 112.505C117.507 112.77 116.571 112.883 115.681 112.883L115.666 112.898Z" fill="#F9D4E0"/>
<path d="M88.7258 129.93C87.421 129.741 86.3123 128.767 86.0107 127.406C84.11 118.845 89.48 108.463 89.7063 108.025C90.5435 106.423 92.5195 105.811 94.1109 106.649C95.7023 107.488 96.3208 109.46 95.4836 111.062C94.2316 113.465 91.2298 120.84 92.3762 125.986C92.7684 127.746 91.6597 129.499 89.9024 129.885C89.5027 129.976 89.1029 129.983 88.7258 129.93Z" fill="#EAB3C2"/>
<path d="M89.1934 130.845C88.9973 130.845 88.8012 130.829 88.5976 130.799C86.9082 130.55 85.5204 129.265 85.1508 127.595C83.1823 118.732 88.6881 108.062 88.9219 107.609C89.9854 105.584 92.4969 104.798 94.5182 105.864C96.5395 106.921 97.3239 109.438 96.2604 111.463C95.0537 113.79 92.1424 120.901 93.236 125.789C93.4774 126.87 93.2813 127.981 92.6855 128.918C92.0896 129.855 91.1695 130.505 90.091 130.746C89.7893 130.814 89.4876 130.845 89.1859 130.845H89.1934ZM88.854 129.061C89.1406 129.099 89.4272 129.092 89.7138 129.031C90.996 128.744 91.8106 127.467 91.524 126.182C90.3248 120.78 93.417 113.14 94.7067 110.654C95.3177 109.491 94.8651 108.04 93.7036 107.428C92.5421 106.816 91.0941 107.269 90.4831 108.433C90.2569 108.856 85.0377 118.974 86.8705 127.218C87.0816 128.177 87.8811 128.925 88.854 129.061Z" fill="#060001"/>
<path d="M85.2413 131.283C85.2413 131.283 82.9485 127.92 83.7933 123.062L94.0807 123.311C94.0807 123.311 90.898 134.381 91.7502 140.078H73.815C73.815 140.078 73.6868 127.006 85.2338 131.283H85.2413Z" fill="#353535"/>
<path d="M91.7502 141H73.815C73.3097 141 72.9024 140.592 72.8949 140.086C72.8949 139.821 72.8798 133.534 76.8168 130.761C78.5892 129.514 80.8292 129.19 83.4991 129.802C82.9108 128.23 82.3753 125.819 82.8882 122.91C82.9636 122.464 83.3483 122.14 83.8159 122.147L94.1034 122.396C94.39 122.396 94.654 122.54 94.8274 122.774C94.9933 123.009 95.0461 123.303 94.9707 123.575C94.9405 123.681 91.8558 134.517 92.6704 139.95C92.7081 140.214 92.6327 140.486 92.4592 140.69C92.2857 140.894 92.0293 141.008 91.7653 141.008L91.7502 141ZM74.7804 139.156H90.7245C90.3926 134.298 92.1424 127.013 92.874 124.202L84.5852 123.998C84.1628 127.981 85.9729 130.731 85.9956 130.761C86.2218 131.094 86.2067 131.532 85.9579 131.849C85.709 132.167 85.2866 132.288 84.917 132.144C81.9303 131.041 79.5621 131.079 77.8727 132.265C75.4969 133.935 74.9237 137.479 74.7804 139.149V139.156Z" fill="#060001"/>
<path d="M108.456 129.93C109.761 129.741 110.87 128.767 111.171 127.406C113.072 118.845 107.702 108.463 107.476 108.025C106.638 106.423 104.662 105.811 103.071 106.649C101.48 107.488 100.861 109.46 101.698 111.062C102.95 113.465 105.952 120.84 104.806 125.986C104.413 127.746 105.522 129.499 107.28 129.885C107.679 129.976 108.079 129.983 108.456 129.93Z" fill="#EAB3C2"/>
<path d="M107.988 130.844C107.687 130.844 107.385 130.814 107.083 130.746C106.005 130.504 105.077 129.855 104.489 128.918C103.901 127.981 103.705 126.87 103.938 125.789C105.024 120.9 102.121 113.79 100.914 111.463C99.858 109.437 100.642 106.929 102.664 105.863C104.685 104.806 107.197 105.584 108.26 107.609C108.494 108.062 114.007 118.732 112.039 127.595C111.669 129.265 110.281 130.557 108.592 130.799C108.396 130.829 108.2 130.844 107.996 130.844H107.988ZM104.579 107.148C104.202 107.148 103.825 107.239 103.478 107.42C102.317 108.032 101.864 109.475 102.475 110.646C103.772 113.133 106.865 120.764 105.658 126.175C105.371 127.459 106.186 128.744 107.468 129.023C107.755 129.084 108.041 129.099 108.328 129.054C109.301 128.91 110.1 128.169 110.311 127.21C112.144 118.966 106.917 108.856 106.699 108.425C106.276 107.609 105.439 107.148 104.579 107.148Z" fill="#060001"/>
<path d="M111.941 131.283C111.941 131.283 114.233 127.92 113.389 123.062L103.101 123.311C103.101 123.311 106.284 134.381 105.432 140.078H123.367C123.367 140.078 123.495 127.006 111.948 131.283H111.941Z" fill="#353535"/>
<path d="M123.359 141H105.424C105.153 141 104.904 140.887 104.73 140.683C104.557 140.479 104.481 140.207 104.519 139.942C105.334 134.509 102.249 123.674 102.219 123.568C102.143 123.296 102.189 123.001 102.362 122.767C102.528 122.54 102.799 122.397 103.086 122.389L113.374 122.14C113.796 122.125 114.226 122.457 114.301 122.903C114.814 125.812 114.271 128.222 113.69 129.794C116.36 129.19 118.6 129.507 120.373 130.754C124.31 133.527 124.295 139.814 124.295 140.078C124.295 140.585 123.88 140.993 123.374 140.993L123.359 141ZM106.45 139.156H122.394C122.251 137.479 121.67 133.927 119.302 132.265C117.612 131.079 115.244 131.041 112.265 132.152C111.888 132.295 111.465 132.174 111.217 131.857C110.968 131.54 110.96 131.101 111.179 130.769C111.209 130.724 113.012 127.973 112.589 124.006L104.3 124.21C105.039 127.021 106.789 134.298 106.45 139.164V139.156Z" fill="#060001"/>
<path d="M152.05 70.3264C152.05 70.3264 156.424 71.5883 159.358 70.674C159.358 70.674 159.177 78.5854 151.273 80.2327L149.538 71.9963L152.05 70.3188V70.3264Z" fill="#DA7942"/>
<path d="M151.273 81.1622C150.843 81.1622 150.466 80.8675 150.375 80.4292L148.641 72.1929C148.565 71.8226 148.716 71.4448 149.033 71.2332L151.544 69.5557C151.771 69.4046 152.05 69.3593 152.314 69.4348C152.351 69.4499 156.462 70.6136 159.094 69.79C159.381 69.6993 159.682 69.7522 159.924 69.9335C160.157 70.1149 160.301 70.3945 160.293 70.6892C160.293 70.7723 159.999 79.3562 151.476 81.1319C151.416 81.147 151.348 81.1546 151.288 81.1546L151.273 81.1622ZM150.571 72.4271L151.974 79.1144C156.62 77.7316 157.925 73.8326 158.295 71.8453C155.911 72.1551 153.234 71.5808 152.216 71.3239L150.571 72.4271Z" fill="#060001"/>
<path d="M135.062 59.1957C136.528 57.3349 135.632 54.1792 133.062 52.1471C130.492 50.1151 127.22 49.9762 125.755 51.8369C124.289 53.6976 125.184 56.8534 127.754 58.8854C130.324 60.9175 133.596 61.0564 135.062 59.1957Z" fill="#DA7942"/>
<path d="M132.071 61.4403C131.98 61.4403 131.89 61.4403 131.791 61.4403C130.223 61.3723 128.586 60.73 127.191 59.6268C124.227 57.2844 123.261 53.5365 125.034 51.2847C125.931 50.1437 127.342 49.5619 129.039 49.6299C130.607 49.6979 132.244 50.3402 133.639 51.4434C135.035 52.5466 136.038 53.9898 136.468 55.5011C136.928 57.1257 136.686 58.6445 135.796 59.7855C134.952 60.8585 133.632 61.4403 132.071 61.4403ZM128.767 51.4585C127.779 51.4585 126.972 51.791 126.482 52.4181C125.35 53.8463 126.203 56.4834 128.337 58.1685C129.431 59.0299 130.683 59.5361 131.874 59.589C132.953 59.6344 133.828 59.3019 134.348 58.6369C134.869 57.9795 134.989 57.0426 134.695 55.9998C134.371 54.8512 133.587 53.748 132.493 52.8791C131.399 52.0176 130.14 51.5114 128.956 51.4585C128.888 51.4585 128.827 51.4585 128.76 51.4585H128.767Z" fill="#060001"/>
<path d="M143.468 65.1731C144.711 63.5941 143.946 60.912 141.759 59.1824C139.571 57.4528 136.79 57.3308 135.546 58.9098C134.302 60.4888 135.067 63.1709 137.255 64.9005C139.442 66.6301 142.224 66.7521 143.468 65.1731Z" fill="#DA7942"/>
<path d="M140.925 67.2206C140.842 67.2206 140.767 67.2206 140.684 67.2206C139.319 67.1602 137.901 66.601 136.694 65.6489C135.487 64.6968 134.612 63.4425 134.243 62.1277C133.835 60.6995 134.047 59.3621 134.839 58.3647C135.63 57.3597 136.867 56.8383 138.353 56.9063C139.718 56.9667 141.136 57.5259 142.343 58.478C143.55 59.4301 144.425 60.6844 144.794 61.9992C145.201 63.4198 144.99 64.7573 144.198 65.7622C143.452 66.7068 142.298 67.2206 140.925 67.2206ZM138.112 58.7349C137.312 58.7349 136.671 58.9994 136.279 59.4981C135.864 60.027 135.766 60.7751 136.008 61.6139C136.279 62.5584 136.92 63.4727 137.833 64.1905C138.738 64.9084 139.779 65.324 140.759 65.3693C141.634 65.4071 142.335 65.1351 142.75 64.6137C143.165 64.0848 143.263 63.3367 143.022 62.4979C142.75 61.5534 142.102 60.6315 141.197 59.9137C140.291 59.1958 139.251 58.7803 138.27 58.7349C138.217 58.7349 138.165 58.7349 138.112 58.7349Z" fill="#060001"/>
<path d="M151.5 71.5354C152.743 69.9564 151.978 67.2743 149.791 65.5447C147.603 63.8151 144.822 63.6931 143.578 65.2721C142.334 66.8511 143.099 69.5332 145.287 71.2628C147.474 72.9924 150.256 73.1144 151.5 71.5354Z" fill="#DA7942"/>
<path d="M148.95 73.5604C147.57 73.5604 146.046 73.039 144.726 71.9962C142.147 69.956 141.31 66.6842 142.871 64.712C144.432 62.7398 147.796 62.7851 150.375 64.8253C152.955 66.8655 153.792 70.1374 152.231 72.1096C151.469 73.0768 150.27 73.5604 148.95 73.5604ZM145.865 70.5454C147.622 71.9282 149.87 72.1247 150.783 70.9686C151.695 69.8125 150.986 67.6589 149.229 66.2761C147.472 64.8933 145.224 64.6969 144.311 65.853C143.399 67.0091 144.108 69.1626 145.865 70.5454Z" fill="#060001"/>
<path d="M129.355 78.2075C127.002 78.8573 124.528 77.5425 123.759 75.1925C122.967 72.7745 124.279 70.1752 126.685 69.3818C126.821 69.3364 140.495 64.6062 142.765 52.3424C143.225 49.8412 145.631 48.1864 148.128 48.6474C150.624 49.1083 152.276 51.5187 151.816 54.0199C148.535 71.7318 130.336 77.8901 129.559 78.147C129.491 78.1697 129.416 78.1924 129.348 78.2075H129.355Z" fill="#EAB3C2"/>
<path d="M128.126 79.2578C125.811 79.2578 123.676 77.7768 122.922 75.4721C121.987 72.6007 123.548 69.4951 126.406 68.5506C126.535 68.5052 139.733 63.8808 141.898 52.1837C142.449 49.2065 145.315 47.2268 148.286 47.7859C151.258 48.3375 153.226 51.2089 152.676 54.1861C149.304 72.3967 130.622 78.7289 129.831 78.9858C129.748 79.016 129.665 79.0387 129.582 79.0613C129.091 79.1973 128.609 79.2578 128.126 79.2578ZM147.298 49.4483C145.541 49.4483 143.965 50.7102 143.633 52.5011C141.257 65.3316 127.108 70.1676 126.965 70.2205C125.019 70.8628 123.955 72.9785 124.596 74.9281C125.215 76.8247 127.206 77.8977 129.122 77.3687C129.182 77.3536 129.242 77.3385 129.303 77.3158C130.049 77.0665 147.781 71.0668 150.964 53.8687C151.341 51.8437 149.998 49.8941 147.977 49.5163C147.751 49.471 147.524 49.4559 147.298 49.4559V49.4483Z" fill="#060001"/>
<path d="M60.6313 123.689C55.9627 127.679 52.1917 129.243 49.0617 124.263C45.9317 119.284 44.1366 118.664 45.102 116.956C47.9077 112.022 53.323 116.79 54.6278 120.795" fill="#EAB3C2"/>
<path d="M53.6322 128.275C53.3607 128.275 53.0967 128.253 52.8327 128.215C51.098 127.95 49.6198 126.809 48.315 124.739C47.1988 122.971 46.2484 121.747 45.547 120.848C44.2724 119.208 43.4277 118.127 44.3327 116.525C45.6526 114.213 47.3873 113.866 48.6318 114.002C51.6335 114.311 54.5146 117.629 55.4649 120.53C55.6158 120.991 55.3669 121.49 54.8993 121.641C54.4392 121.792 53.9414 121.543 53.7906 121.074C53.0288 118.739 50.5852 115.974 48.4508 115.755C47.3948 115.649 46.5501 116.185 45.8563 117.402C45.5697 117.908 45.6074 118.074 46.9272 119.767C47.6437 120.689 48.6318 121.951 49.7933 123.802C50.8114 125.419 51.89 126.296 53.0892 126.477C54.8012 126.741 56.9508 125.676 60.0506 123.031C60.4201 122.714 60.9783 122.759 61.2875 123.13C61.6043 123.5 61.559 124.059 61.1894 124.369C58.0293 127.066 55.7063 128.275 53.6247 128.275H53.6322Z" fill="#060001"/>
<path d="M65.8957 110.291C64.3119 109.075 62.0945 109.188 60.0807 108.833C57.9916 108.455 55.9854 107.45 54.7937 105.637C53.9339 104.337 54.9823 102.07 55.6761 100.831C56.9885 98.5037 58.7986 96.6826 58.8438 96.6373C60.5559 94.9447 60.5785 92.1867 58.8966 90.4638C57.2072 88.741 54.4468 88.7108 52.7272 90.4034C52.4632 90.6603 50.0949 93.033 48.1943 96.3275C46.4521 99.35 44.0537 105.199 47.508 110.45C49.9818 114.206 53.4437 116.042 56.4982 116.933C53.6925 121.626 52.5763 125.072 52.5763 125.072C50.9774 120.583 43.8727 115.679 41.6779 121.021C40.8332 123.077 42.681 123.628 46.3767 129.167C50.0723 134.706 57.3957 134.336 62.5621 129.681C65.2094 127.301 66.929 124.014 67.6304 120.538C68.2036 117.712 68.4978 114.251 67.0346 111.636C66.7103 111.062 66.3256 110.624 65.8882 110.291H65.8957Z" fill="#EAB3C2"/>
<path d="M54.0018 134.124C53.5492 134.124 53.0967 134.094 52.6517 134.041C49.748 133.678 47.327 132.159 45.6526 129.651C44.3478 127.694 43.2618 126.356 42.4774 125.381C40.9689 123.515 40.1318 122.487 40.8784 120.681C41.6628 118.785 43.0883 117.734 44.9663 117.81C47.7493 117.878 50.8039 120.281 52.4783 122.903C53.0288 121.596 53.9113 119.691 55.201 117.44C51.626 116.178 48.7977 113.994 46.7839 110.934C43.0657 105.289 45.5998 99.0855 47.4401 95.8892C49.4086 92.4737 51.8447 90.0406 52.1238 89.7762C53.1193 88.7938 54.4769 88.2725 55.8421 88.2725C57.2449 88.2876 58.5497 88.8467 59.5377 89.8442C61.559 91.907 61.5288 95.2318 59.4774 97.2644C59.4095 97.3324 57.705 99.0553 56.4605 101.262C55.4725 103.015 55.118 104.511 55.5404 105.153C56.4907 106.596 58.165 107.594 60.2542 107.972C60.7595 108.062 61.2724 108.123 61.8154 108.183C63.4219 108.365 65.0887 108.561 66.4463 109.604C66.9969 110.027 67.4645 110.571 67.8265 111.221C69.1162 113.526 69.3425 116.639 68.5129 120.727C67.7511 124.512 65.8505 127.935 63.173 130.346C60.4503 132.802 57.1846 134.139 54.0244 134.139L54.0018 134.124ZM44.8456 119.563C43.7595 119.563 42.9902 120.145 42.5 121.346C42.1757 122.132 42.3642 122.442 43.8425 124.271C44.6571 125.276 45.7657 126.651 47.1158 128.676C48.496 130.746 50.4871 132.001 52.8704 132.295C55.8798 132.681 59.2813 131.449 61.9814 129.023C64.3873 126.855 66.0843 123.779 66.7782 120.364C67.5173 116.707 67.3514 113.994 66.2804 112.067C66.0315 111.621 65.7374 111.274 65.3678 110.994C64.3948 110.246 63.0373 110.095 61.6043 109.929C61.0537 109.868 60.488 109.8 59.9374 109.702C57.3731 109.241 55.2839 107.972 54.0697 106.12C53.0138 104.511 53.949 102.123 54.9219 100.393C56.287 97.9747 58.1575 96.0932 58.2329 96.0101C59.6056 94.6575 59.6207 92.4435 58.2782 91.0758C57.622 90.4109 56.7547 90.0406 55.827 90.0331H55.7968C54.8767 90.0331 54.0169 90.3882 53.3607 91.0305C53.2551 91.1287 50.8567 93.5014 48.9712 96.7657C47.3345 99.6069 45.0643 105.108 48.2622 109.959C50.2307 112.951 53.0967 115.014 56.7697 116.087C57.0337 116.163 57.2449 116.359 57.3429 116.608C57.441 116.865 57.4184 117.145 57.2751 117.379C54.5599 121.913 53.4437 125.306 53.4361 125.336C53.3154 125.691 52.9911 125.94 52.614 125.94C52.2746 125.94 51.8975 125.714 51.7768 125.359C50.7586 122.495 47.3722 119.623 44.9437 119.563C44.921 119.563 44.8909 119.563 44.8682 119.563H44.8456Z" fill="#060001"/>
<path d="M59.0324 115.309C57.7653 115.022 55.7666 115.709 54.5297 117.47C51.5883 121.648 53.0967 125.298 53.0967 125.298C53.0967 125.298 52.0408 126.877 51.7165 128.094" fill="#EAB3C2"/>
<path d="M51.7165 128.971C51.6411 128.971 51.5657 128.963 51.4827 128.94C51.0151 128.812 50.736 128.328 50.8642 127.86C51.1282 126.885 51.7768 125.752 52.1313 125.177C51.7919 123.983 51.2112 120.651 53.8057 116.956C55.299 114.833 57.6673 114.085 59.2209 114.44C59.6961 114.546 59.9902 115.022 59.8846 115.49C59.7791 115.959 59.3039 116.261 58.8363 116.155C58.0067 115.974 56.3474 116.404 55.2462 117.969C52.6442 121.664 53.8585 124.83 53.9113 124.958C54.0169 125.23 53.9867 125.54 53.8283 125.782C53.5568 126.19 52.8026 127.437 52.5612 128.313C52.4556 128.706 52.1011 128.963 51.7165 128.963V128.971Z" fill="#060001"/>
<path d="M19.768 81.4643C19.768 81.4643 15.3256 80.4518 12.4521 81.5323C12.4521 81.5323 12.1806 73.6209 19.9867 71.5278L22.1815 79.6508L19.768 81.4643Z" fill="#DA7942"/>
<path d="M12.4521 82.4541C12.2711 82.4541 12.0976 82.4012 11.9392 82.2954C11.6903 82.1292 11.5395 81.8571 11.5319 81.5624C11.5319 81.4793 11.3358 72.8954 19.7453 70.6361C20.2356 70.5076 20.7409 70.7948 20.8691 71.2859L23.0639 79.4089C23.1619 79.7716 23.0262 80.1645 22.7245 80.3837L20.311 82.1972C20.0923 82.3634 19.8132 82.4163 19.5568 82.3558C19.5115 82.3483 15.3407 81.4189 12.7689 82.3861C12.6633 82.4239 12.5577 82.4465 12.4445 82.4465L12.4521 82.4541ZM15.7782 80.1116C17.3847 80.1116 18.8478 80.3459 19.5492 80.4819L21.1331 79.288L19.3532 72.6914C14.7902 74.3311 13.7116 78.2981 13.4552 80.3081C14.2169 80.1645 15.0164 80.1116 15.7857 80.1116H15.7782Z" fill="#060001"/>
<path d="M47.3784 80.4265C50.0789 78.5719 51.1836 75.4835 49.8459 73.5284C48.5082 71.5732 45.2346 71.4917 42.5341 73.3463C39.8337 75.2009 38.7289 78.2893 40.0666 80.2444C41.4044 82.1996 44.6779 82.2811 47.3784 80.4265Z" fill="#DA7942"/>
<path d="M43.3523 82.6731C41.6704 82.6731 40.1695 82.0308 39.3021 80.7689C37.6806 78.3963 38.8949 74.7315 42.0098 72.5855C45.1247 70.4471 48.9787 70.6284 50.6003 73.0011C52.2218 75.3738 51.0075 79.0386 47.8926 81.1845C46.437 82.182 44.823 82.6731 43.3523 82.6731ZM43.0581 74.1119C40.8181 75.6533 39.7924 78.2225 40.8256 79.7262C41.8589 81.2299 44.6193 81.1997 46.8594 79.6657C49.0994 78.1242 50.1251 75.5551 49.0918 74.0514C48.0586 72.5477 45.2981 72.5779 43.0581 74.1119Z" fill="#060001"/>
<path d="M35.3084 84.6406C38.0928 84.5266 40.2835 82.8049 40.2015 80.7951C40.1195 78.7853 37.7959 77.2485 35.0116 77.3624C32.2273 77.4764 30.0365 79.1981 30.1185 81.2079C30.2005 83.2177 32.5241 84.7546 35.3084 84.6406Z" fill="#DA7942"/>
<path d="M35.0182 85.5749C31.8807 85.5749 29.2937 83.6858 29.1957 81.2451C29.0901 78.7289 31.6846 76.5753 34.9654 76.4393C36.504 76.3713 37.9747 76.7567 39.1136 77.5123C40.3429 78.3284 41.0519 79.4845 41.1047 80.7615C41.1575 82.0385 40.5466 83.2475 39.3851 84.1618C38.3141 85.0081 36.8736 85.5068 35.335 85.5673C35.2294 85.5673 35.1162 85.5673 35.0106 85.5673L35.0182 85.5749ZM35.2972 78.2755C35.2143 78.2755 35.1238 78.2755 35.0408 78.2755C32.8083 78.3662 30.9756 79.6885 31.0359 81.162C31.0963 82.6355 33.0271 83.7916 35.2671 83.716C36.421 83.6707 37.4845 83.308 38.2538 82.7035C38.9401 82.167 39.3021 81.502 39.272 80.8295C39.2418 80.157 38.827 79.5298 38.1029 79.0462C37.3412 78.54 36.3531 78.2755 35.2972 78.2755Z" fill="#060001"/>
<path d="M25.0766 85.0586C27.8609 84.9446 30.0516 83.2229 29.9696 81.2131C29.8877 79.2033 27.5641 77.6664 24.7797 77.7804C21.9954 77.8944 19.8047 79.6161 19.8867 81.6259C19.9686 83.6357 22.2922 85.1726 25.0766 85.0586Z" fill="#DA7942"/>
<path d="M24.7835 85.9904C21.646 85.9904 19.059 84.1013 18.961 81.6606C18.8554 79.1444 21.4499 76.9909 24.7307 76.8549C26.2693 76.7868 27.74 77.1722 28.8789 77.9278C30.1083 78.7439 30.8172 79.9 30.87 81.177C30.9228 82.4541 30.3119 83.6631 29.1504 84.5774C28.0794 85.4237 26.6389 85.9224 25.1003 85.9828C24.9947 85.9828 24.8815 85.9828 24.776 85.9828L24.7835 85.9904ZM25.0701 78.691C24.9871 78.691 24.8966 78.691 24.8137 78.691C22.5812 78.7817 20.7484 80.1041 20.8088 81.5775C20.8691 83.051 22.8075 84.2071 25.0399 84.1315C26.1939 84.0862 27.2573 83.7235 28.0266 83.119C28.713 82.5825 29.075 81.9176 29.0448 81.245C29.0146 80.5725 28.5998 79.9454 27.8758 79.4618C27.114 78.9555 26.1335 78.691 25.0701 78.691Z" fill="#060001"/>
<path d="M130.622 64.6743C136.671 86.7009 127.01 107.518 101.502 114.553C74.8558 121.898 57.0563 108.644 51.0075 86.6177C44.9587 64.5912 57.8784 41.8242 79.8638 35.7641C101.849 29.7039 124.574 42.6478 130.622 64.6743Z" fill="#F9D4E0"/>
<path d="M87.4286 117.493C80.2409 117.493 73.6868 115.785 68.0528 112.385C59.4849 107.216 53.2853 98.3904 50.1176 86.8595C47.1233 75.9709 48.5488 64.561 54.1149 54.7454C59.6886 44.9298 68.7391 37.8722 79.6074 34.8724C90.4756 31.8725 101.857 33.3007 111.661 38.8848C121.466 44.4688 128.511 53.5364 131.497 64.425C134.627 75.8198 133.654 86.6253 128.692 95.6777C123.48 105.183 114.158 112.014 101.736 115.437C96.7582 116.813 91.9614 117.493 87.421 117.493H87.4286ZM90.8753 35.1897C87.2777 35.1897 83.665 35.6733 80.1051 36.6557C69.7121 39.5195 61.0537 46.2748 55.7214 55.6597C50.3966 65.0521 49.0315 75.9558 51.8975 86.3759C54.937 97.4458 60.8576 105.894 69.0106 110.813C77.752 116.087 88.9068 117.069 101.261 113.669C124.906 107.148 136.083 88.0156 129.74 64.9237C126.882 54.5111 120.139 45.8365 110.772 40.4942C104.61 36.9806 97.7915 35.1897 90.8904 35.1897H90.8753Z" fill="#060001"/>
<path d="M71.0847 58.2891C61.4459 62.0974 53.6473 66.5934 48.9335 70.9609C48.5035 74.7768 48.5941 78.7061 49.2578 82.6429C54.1526 79.8093 59.5905 74.9506 64.4476 68.6865C67.1402 65.2182 69.3727 61.6818 71.0847 58.2966V58.2891Z" fill="#DA7942"/>
<path d="M49.2578 83.5573C49.122 83.5573 48.9938 83.527 48.8656 83.4666C48.5941 83.3381 48.398 83.0812 48.3527 82.7865C47.689 78.8421 47.5759 74.8222 48.0209 70.8476C48.0435 70.6285 48.1491 70.4245 48.3075 70.2733C53.1495 65.7925 61.1216 61.2285 70.7453 57.4277C71.0998 57.2841 71.5071 57.3823 71.7635 57.6619C72.02 57.9491 72.0803 58.3571 71.9068 58.6971C70.1043 62.2561 67.8341 65.8076 65.1717 69.2381C60.4126 75.3738 54.9219 80.4138 49.7178 83.4288C49.5745 83.5119 49.4161 83.5497 49.2578 83.5497V83.5573ZM49.8083 71.4068C49.4765 74.6484 49.5217 77.9127 49.9592 81.1392C54.6127 78.1923 59.4548 73.6132 63.7161 68.1198C65.7524 65.4978 67.5399 62.8153 69.0634 60.1101C60.8651 63.5558 54.1074 67.5153 49.8083 71.4068Z" fill="#060001"/>
<path d="M98.9002 50.6195C109.127 48.9496 118.125 48.8136 124.408 50.151C126.723 53.2113 128.654 56.6343 130.095 60.352C124.445 60.4276 117.288 59.0372 109.919 56.1431C105.839 54.5412 102.113 52.6521 98.9077 50.6195H98.9002Z" fill="#DA7942"/>
<path d="M129.657 61.2814C123.736 61.2814 116.632 59.7701 109.58 57.0045C105.537 55.4177 101.781 53.5362 98.4099 51.3978C98.0856 51.1937 97.9197 50.8084 98.0027 50.4306C98.0856 50.0527 98.3798 49.7656 98.7569 49.7052C108.969 48.0352 118.148 47.8765 124.596 49.2442C124.815 49.2896 125.004 49.4105 125.139 49.5918C127.553 52.7806 129.506 56.2867 130.947 60.0195C131.052 60.299 131.022 60.6164 130.849 60.8658C130.683 61.1151 130.396 61.2662 130.095 61.2738C129.944 61.2738 129.793 61.2738 129.642 61.2738L129.657 61.2814ZM101.563 51.1484C104.255 52.6899 107.166 54.0802 110.251 55.2892C116.722 57.8281 123.216 59.2714 128.722 59.4225C127.447 56.4302 125.826 53.5966 123.88 50.9822C118.201 49.8412 110.364 49.9016 101.563 51.1484Z" fill="#060001"/>
<path d="M49.3407 58.1078C57.3966 58.1078 63.9272 51.5649 63.9272 43.494C63.9272 35.423 57.3966 28.8801 49.3407 28.8801C41.2848 28.8801 34.7542 35.423 34.7542 43.494C34.7542 51.5649 41.2848 58.1078 49.3407 58.1078Z" fill="#353535"/>
<path d="M49.3181 59.0372C46.6633 59.0372 44.0461 58.3496 41.6779 57.0046C38.0803 54.9568 35.4858 51.6245 34.3922 47.6197C33.291 43.6224 33.8114 39.4287 35.8629 35.8168C37.9068 32.2125 41.2329 29.6131 45.2303 28.5174C49.2276 27.4218 53.4059 27.9356 57.0111 29.9909C60.6087 32.0387 63.2032 35.371 64.2968 39.3758C65.398 43.3731 64.8776 47.5668 62.8261 51.1711C60.7822 54.783 57.4561 57.3748 53.4587 58.4705C52.0936 58.8483 50.6983 59.0372 49.3181 59.0372ZM49.3633 29.802C48.1491 29.802 46.9197 29.9682 45.7205 30.3007C42.1983 31.2679 39.272 33.5575 37.4618 36.7387C35.6517 39.9198 35.1992 43.6073 36.1646 47.1361C37.13 50.6649 39.4153 53.5967 42.5905 55.4026C45.7657 57.2086 49.4539 57.6695 52.9685 56.7023C56.4907 55.7351 59.417 53.4456 61.2272 50.2644C63.0297 47.0832 63.4898 43.3957 62.5244 39.867C61.559 36.3382 59.2737 33.4063 56.0985 31.6004C54.0093 30.4141 51.7014 29.802 49.3709 29.802H49.3633Z" fill="#060001"/>
<path d="M110.032 41.3783C118.088 41.3783 124.619 34.8355 124.619 26.7645C124.619 18.6935 118.088 12.1506 110.032 12.1506C101.976 12.1506 95.4459 18.6935 95.4459 26.7645C95.4459 34.8355 101.976 41.3783 110.032 41.3783Z" fill="#353535"/>
<path d="M110.01 42.3076C107.355 42.3076 104.738 41.62 102.37 40.2675C98.7644 38.2197 96.1775 34.8874 95.0839 30.8826C93.9827 26.8853 94.5031 22.6916 96.5546 19.0797C98.606 15.4678 101.925 12.876 105.922 11.7803C109.912 10.6771 114.098 11.1985 117.703 13.2538C121.3 15.3015 123.895 18.6339 124.988 22.6387C127.259 30.8977 122.394 39.4665 114.15 41.7409C112.785 42.1187 111.39 42.3076 110.01 42.3076ZM110.055 13.0649C108.841 13.0649 107.611 13.2311 106.412 13.5636C102.89 14.5308 99.9636 16.8203 98.1535 20.0015C96.3509 23.1827 95.8909 26.8702 96.8563 30.399C97.8217 33.9277 100.107 36.8596 103.282 38.6655C106.457 40.4715 110.146 40.9324 113.66 39.9652C120.923 37.9628 125.207 30.4141 123.209 23.1298C122.243 19.6011 119.958 16.6692 116.783 14.8633C114.693 13.6769 112.386 13.0649 110.055 13.0649Z" fill="#060001"/>
<path d="M84.7964 53.7252C101.691 49.0706 117.235 48.0958 126.075 50.5516C116.549 34.7363 97.3842 26.5075 78.7325 31.6458C60.0807 36.7841 47.8172 53.6874 47.7116 72.155C54.047 65.513 67.902 58.3799 84.7964 53.7252Z" fill="#353535"/>
<path d="M47.7116 73.0845C47.5985 73.0845 47.4778 73.0618 47.3647 73.0165C47.0177 72.8729 46.7839 72.5329 46.7915 72.155C46.9046 52.9017 59.9374 35.8774 78.4911 30.7618C97.0448 25.6462 116.933 33.5954 126.866 50.0756C127.063 50.4005 127.04 50.8086 126.814 51.1108C126.587 51.4131 126.203 51.5415 125.833 51.4433C116.835 48.9422 101.208 50.1587 85.0453 54.6169C68.8824 59.0751 54.8314 66.042 48.3829 72.7973C48.2094 72.9862 47.9605 73.0845 47.7192 73.0845H47.7116ZM89.8571 31.0716C86.2369 31.0716 82.579 31.5476 78.9738 32.5451C61.9361 37.2375 49.7631 52.4256 48.6996 69.9259C55.9175 63.4653 69.335 57.0425 84.5475 52.8488C99.7524 48.655 114.573 47.2949 124.068 49.1538C116.307 37.7287 103.342 31.0792 89.8496 31.0792L89.8571 31.0716Z" fill="#060001"/>
<path d="M80.4295 69.941C80.4295 69.941 79.1624 66.4953 81.6287 65.8153C84.0949 65.1352 84.7813 68.6111 84.7813 68.6111" fill="#F9D4E0"/>
<path d="M80.4295 70.8629C80.0524 70.8629 79.7054 70.6362 79.5697 70.2584C79.4867 70.0241 78.7551 67.9386 79.5697 66.3669C79.9392 65.6491 80.5652 65.1503 81.3949 64.9237C82.232 64.6894 83.039 64.7952 83.7329 65.2259C85.2036 66.1402 85.6562 68.2031 85.7014 68.4373C85.7995 68.936 85.4752 69.4196 84.9774 69.5254C84.472 69.6312 83.9969 69.2987 83.8913 68.8C83.8159 68.4147 83.4312 67.2132 82.76 66.7976C82.6016 66.6994 82.3376 66.586 81.8851 66.7069C81.4552 66.8278 81.2968 67.0545 81.2138 67.2132C80.8367 67.9386 81.1686 69.2383 81.3119 69.6312C81.4854 70.1073 81.2365 70.6362 80.7613 70.81C80.6557 70.8478 80.5501 70.8629 80.4445 70.8629H80.4295Z" fill="#060001"/>
<path d="M77.3296 67.7271C77.3296 67.7271 78.6872 68.4147 80.0071 67.7724L77.3296 67.7271Z" fill="#BFDFE8"/>
<path d="M78.7777 68.5733C77.85 68.5733 77.1335 68.2182 77.0883 68.1955C76.8319 68.0671 76.7263 67.7497 76.8545 67.4852C76.9827 67.2283 77.2995 67.1225 77.5559 67.251C77.571 67.2585 78.7099 67.8101 79.7658 67.2963C80.0297 67.1679 80.339 67.2812 80.4672 67.5381C80.5954 67.8026 80.4823 68.1124 80.2258 68.2408C79.7205 68.4826 79.2227 68.5658 78.7702 68.5658L78.7777 68.5733Z" fill="#040000"/>
<path d="M77.5785 69.7068C77.5785 69.7068 79.0568 70.062 80.1957 69.1326L77.5785 69.7068Z" fill="#BFDFE8"/>
<path d="M78.2649 70.2962C77.8048 70.2962 77.4805 70.2206 77.4503 70.2131C77.1713 70.1451 76.9978 69.8579 77.0657 69.5784C77.1335 69.2988 77.4201 69.125 77.6992 69.193C77.7294 69.193 78.9512 69.465 79.8638 68.7245C80.0901 68.5431 80.4219 68.5734 80.6029 68.8001C80.7839 69.0267 80.7538 69.3592 80.5275 69.5406C79.7657 70.1602 78.8909 70.2962 78.2649 70.2962Z" fill="#040000"/>
<path d="M98.2063 65.3542C98.2063 65.3542 97.5351 61.7423 95.0688 62.4224C92.6025 63.1025 93.7866 66.4423 93.7866 66.4423" fill="#F9D4E0"/>
<path d="M93.7866 67.3643C93.4095 67.3643 93.055 67.13 92.9193 66.7522C92.8363 66.5255 92.1726 64.5231 92.972 62.9892C93.3492 62.2714 93.9902 61.7651 94.8274 61.5384C95.6571 61.3117 96.449 61.4175 97.1278 61.8406C98.6211 62.7776 99.0661 64.9463 99.1114 65.1881C99.2019 65.6868 98.8775 66.1704 98.3722 66.2611C97.8669 66.3517 97.3917 66.0268 97.3012 65.5281C97.2183 65.1125 96.8412 63.828 96.1473 63.3972C95.9965 63.3066 95.74 63.1932 95.3101 63.3066C94.8576 63.435 94.6841 63.6693 94.6012 63.8355C94.2316 64.5458 94.5257 65.7624 94.654 66.1326C94.8274 66.6162 94.571 67.1376 94.0958 67.3114C93.9978 67.3492 93.8922 67.3643 93.7866 67.3643Z" fill="#060001"/>
<path d="M99.7374 61.8633C99.7374 61.8633 98.9228 63.1478 97.4596 63.2763L99.7374 61.8633Z" fill="#BFDFE8"/>
<path d="M97.4596 63.7977C97.1881 63.7977 96.9618 63.5937 96.9392 63.3141C96.9166 63.027 97.1278 62.77 97.4219 62.7474C98.5985 62.6491 99.2924 61.5913 99.2999 61.5761C99.4583 61.3343 99.7826 61.2588 100.024 61.4175C100.265 61.5761 100.341 61.8935 100.182 62.1429C100.145 62.2033 99.2094 63.6541 97.5049 63.7977C97.4898 63.7977 97.4747 63.7977 97.4596 63.7977Z" fill="#040000"/>
<path d="M100.529 63.6919C100.529 63.6919 99.4432 64.7573 97.9876 64.5382L100.529 63.6919Z" fill="#BFDFE8"/>
<path d="M98.3873 65.0975C98.2365 65.0975 98.0781 65.0899 97.9197 65.0597C97.6331 65.0143 97.437 64.7499 97.4747 64.4627C97.52 64.1756 97.7839 63.9791 98.0705 64.0169C99.232 64.1983 100.16 63.3217 100.167 63.3142C100.378 63.1102 100.71 63.1177 100.914 63.3293C101.118 63.5409 101.11 63.8658 100.906 64.0698C100.861 64.1151 99.8354 65.0975 98.3949 65.0975H98.3873Z" fill="#040000"/>
<path d="M81.9379 74.8073C81.9379 74.8073 88.5976 76.6585 91.6748 78.3511C91.6748 78.3511 94.669 73.5605 98.6437 70.7646" fill="#F9D4E0"/>
<path d="M91.6748 79.2806C91.524 79.2806 91.3731 79.2428 91.2298 79.1672C88.2808 77.5426 81.7493 75.7216 81.689 75.6989C81.1988 75.5629 80.9122 75.0566 81.0479 74.5655C81.1837 74.0743 81.689 73.7872 82.1792 73.9232C82.4357 73.9912 88.0395 75.5553 91.358 77.1648C92.3687 75.6913 94.9104 72.2684 98.1083 70.0166C98.5231 69.7219 99.0963 69.8277 99.3904 70.2433C99.6846 70.6589 99.579 71.2331 99.1642 71.5278C95.4006 74.1801 92.4818 78.8045 92.4516 78.8499C92.2782 79.1294 91.9765 79.2806 91.6673 79.2806H91.6748Z" fill="#060001"/>
<path d="M157.804 61.1379C156.092 62.3847 153.694 61.9842 152.48 60.2462L137.614 38.9224C136.588 37.4565 136.928 35.4314 138.376 34.3811C139.824 33.3232 141.845 33.6255 142.924 35.0536L158.596 55.788C159.871 57.4806 159.516 59.8911 157.804 61.1379Z" fill="#FEC708"/>
<path d="M155.587 62.7851C155.323 62.7851 155.059 62.7625 154.803 62.7171C153.543 62.5055 152.457 61.8179 151.725 60.7676L136.86 39.4438C135.555 37.5774 135.992 34.9629 137.833 33.6255C139.673 32.288 142.283 32.6734 143.655 34.4869L159.328 55.2213C160.097 56.2338 160.414 57.4882 160.233 58.7501C160.044 60.012 159.381 61.1227 158.347 61.8708C157.533 62.4602 156.575 62.77 155.594 62.77L155.587 62.7851ZM140.291 34.6758C139.809 34.6758 139.326 34.8194 138.911 35.1216C137.878 35.8773 137.629 37.3432 138.368 38.3935L153.234 59.7173C153.679 60.352 154.342 60.7752 155.104 60.9036C155.874 61.0321 156.635 60.8507 157.261 60.3974C157.887 59.944 158.295 59.2639 158.408 58.5007C158.521 57.7375 158.325 56.9744 157.857 56.3547L142.185 35.6128C141.724 35.0007 141.016 34.6758 140.291 34.6758Z" fill="black"/>
<path d="M140.608 4.01998C138.172 0.664997 133.488 -0.0755171 130.14 2.36516C126.791 4.80583 126.052 9.49828 128.488 12.8533C128.782 13.2613 129.114 13.624 129.469 13.9565C127.937 14.3947 126.459 15.105 125.094 16.1025C123.729 17.0999 122.605 18.2862 121.715 19.6086C121.512 19.1703 121.263 18.7396 120.969 18.3391C118.532 14.9841 113.849 14.2436 110.5 16.6843C107.151 19.125 106.412 23.8174 108.848 27.1724C111.284 30.5274 115.968 31.2679 119.317 28.8272C119.339 28.8121 119.37 28.7894 119.392 28.7668C119.618 31.1923 120.478 33.5877 122.009 35.6959C126.557 41.96 135.314 43.3428 141.574 38.7864C147.834 34.2299 149.206 25.4571 144.658 19.1854C143.127 17.0772 141.114 15.5206 138.881 14.5534C138.904 14.5383 138.934 14.5156 138.957 14.5005C142.305 12.0599 143.044 7.36741 140.608 4.01243V4.01998Z" fill="#FEC708"/>
<path d="M133.353 42.3832C128.737 42.3832 124.181 40.2524 121.263 36.2324C119.973 34.4567 119.091 32.4241 118.683 30.2781C117.122 31.0639 115.357 31.3435 113.6 31.0639C111.382 30.7164 109.429 29.5149 108.109 27.6938C105.379 23.9384 106.209 18.649 109.965 15.9136C113.713 13.1783 118.992 14.017 121.715 17.7725C121.745 17.8178 121.783 17.8631 121.813 17.916C122.613 16.9488 123.525 16.0874 124.551 15.3393C125.577 14.5913 126.678 13.9868 127.847 13.5258C127.809 13.4805 127.779 13.4352 127.741 13.3898C126.421 11.5688 125.886 9.33967 126.233 7.11812C126.58 4.89658 127.779 2.93951 129.597 1.61716C131.414 0.294813 133.639 -0.249238 135.857 0.105906C138.074 0.453495 140.028 1.65494 141.347 3.476C143.799 6.85366 143.376 11.463 140.54 14.3495C142.449 15.3998 144.108 16.8657 145.398 18.6414C150.24 25.3061 148.761 34.6758 142.109 39.527C139.462 41.4538 136.392 42.3832 133.353 42.3832ZM119.392 27.8374C119.52 27.8374 119.649 27.8676 119.769 27.9205C120.071 28.0565 120.275 28.3437 120.312 28.6762C120.531 31.0111 121.376 33.2477 122.756 35.1519C127.002 40.9929 135.201 42.2926 141.031 38.0384C146.861 33.7842 148.158 25.5705 143.912 19.7295C142.532 17.8254 140.661 16.3292 138.512 15.4074C138.202 15.2713 137.991 14.9842 137.961 14.6517C137.931 14.3193 138.074 13.9943 138.346 13.8054L138.911 14.4628L138.406 13.7601C139.824 12.7249 140.759 11.1985 141.031 9.46057C141.302 7.72263 140.887 5.98468 139.854 4.56411C138.821 3.14353 137.297 2.20655 135.563 1.93452C133.828 1.6625 132.093 2.07809 130.668 3.1133C129.25 4.14851 128.315 5.67488 128.043 7.41282C127.772 9.15076 128.186 10.8887 129.22 12.3093C129.469 12.6569 129.763 12.9818 130.079 13.2765C130.321 13.5032 130.426 13.8432 130.351 14.1681C130.276 14.493 130.027 14.75 129.71 14.8406C128.247 15.2638 126.874 15.9363 125.63 16.843C124.385 17.7498 123.322 18.853 122.469 20.1225C122.281 20.402 121.964 20.5607 121.632 20.5305C121.3 20.5078 121.006 20.3038 120.87 20.0016C120.689 19.6086 120.463 19.2308 120.214 18.8832C118.08 15.9438 113.962 15.294 111.028 17.4324C108.094 19.5709 107.445 23.6966 109.58 26.6284C110.613 28.049 112.137 28.986 113.871 29.258C115.606 29.53 117.341 29.1144 118.766 28.0792L118.834 28.0263C118.992 27.9054 119.189 27.845 119.377 27.845L119.392 27.8374Z" fill="black"/>
<path d="M150.715 53.0829C150.715 53.0829 144.327 55.0626 141.151 50.9218C137.976 46.7809 138.142 43.5846 140.005 42.5721C141.679 41.6653 143.602 42.4059 144.364 44.8768C144.372 44.8994 144.379 44.9297 144.387 44.9523C145.345 48.0051 147.291 50.6422 149.885 52.501L150.715 53.0904V53.0829Z" fill="#EAB3C2"/>
<path d="M147.245 54.443C145.028 54.443 142.298 53.8612 140.457 51.4583C138.383 48.7532 137.471 46.1538 137.893 44.1514C138.112 43.1011 138.715 42.2623 139.59 41.7938C140.601 41.2422 141.709 41.1667 142.705 41.5671C143.859 42.0356 144.749 43.1162 145.209 44.6048C146.114 47.4988 147.954 50.0226 150.405 51.7681L151.235 52.3575C151.507 52.554 151.642 52.8864 151.59 53.2114C151.537 53.5438 151.303 53.8159 150.979 53.9141C150.843 53.9594 149.252 54.4355 147.245 54.4355V54.443ZM141.4 43.0708C141.083 43.0708 140.752 43.1615 140.42 43.3353C139.997 43.562 139.726 43.9625 139.605 44.5141C139.454 45.2093 139.379 47.1663 141.845 50.3777C143.61 52.6824 146.619 52.8033 148.573 52.5917C146.212 50.6649 144.447 48.0731 143.542 45.2017L143.52 45.1261C143.218 44.1438 142.69 43.4638 142.034 43.1917C141.83 43.1086 141.611 43.0633 141.393 43.0633L141.4 43.0708Z" fill="#060001"/>
<path d="M150.375 39.5422C150.375 39.5422 142.2 41.5975 143.753 45.4134C145.315 49.2293 151.167 43.0936 152.857 45.6174C152.857 45.6174 154.984 44.1968 154.026 41.9073C153.385 40.3658 152.872 38.9754 150.375 39.5497V39.5422Z" fill="#EAB3C2"/>
<path d="M145.563 47.5669C144.485 47.5669 143.512 47.1211 142.946 45.7458C142.569 44.8164 142.599 43.8568 143.044 42.9727C144.447 40.192 149.583 38.8318 150.164 38.6883H150.179C153.339 37.9629 154.184 39.9879 154.795 41.4614L154.84 41.5672C155.813 43.9096 154.29 45.7232 153.347 46.3503C152.94 46.6223 152.397 46.509 152.133 46.1085C151.778 45.5871 150.632 45.9952 149.048 46.6375C148.03 47.0531 146.732 47.5744 145.563 47.5744V47.5669ZM150.579 40.4035C149.206 40.7511 145.496 42.0206 144.613 43.7736C144.394 44.2043 144.379 44.6199 144.568 45.0809C145.005 46.1539 145.903 46.0027 148.384 44.9977C149.855 44.4008 151.627 43.6905 152.864 44.4235C153.241 43.9777 153.626 43.222 153.219 42.2397L153.173 42.1339C152.547 40.6378 152.291 40.0106 150.579 40.4035Z" fill="#060001"/>
<path d="M152.464 43.819C152.464 43.819 144.289 45.8743 145.842 49.6902C147.404 53.5061 153.256 47.3705 154.946 49.8942C154.946 49.8942 157.073 48.4737 156.115 46.1841C155.474 44.6426 154.961 43.2523 152.464 43.8266V43.819Z" fill="#EAB3C2"/>
<path d="M147.645 51.8437C146.567 51.8437 145.594 51.4054 145.028 50.0226C144.651 49.0932 144.681 48.1335 145.126 47.2495C146.529 44.4688 151.665 43.1086 152.246 42.9651H152.261C155.429 42.2397 156.266 44.2572 156.877 45.7307L156.922 45.8364C157.895 48.1789 156.371 49.9924 155.429 50.6196C155.021 50.8916 154.478 50.7782 154.214 50.3778C153.86 49.8564 152.713 50.2644 151.13 50.9067C150.111 51.3223 148.814 51.8437 147.645 51.8437ZM152.668 44.6728C151.295 45.0204 147.585 46.2898 146.702 48.0429C146.484 48.4736 146.468 48.8892 146.657 49.3501C147.094 50.4231 148 50.272 150.473 49.267C151.944 48.67 153.716 47.9598 154.953 48.6927C155.331 48.2469 155.715 47.4913 155.308 46.509L155.263 46.3956C154.637 44.8995 154.38 44.2723 152.668 44.6652V44.6728Z" fill="#060001"/>
<path d="M154.855 48.7306C154.855 48.7306 146.68 50.7859 148.233 54.6018C149.787 58.4178 155.647 52.2821 157.337 54.8059C157.337 54.8059 159.464 53.3853 158.506 51.0957C157.865 49.5543 157.352 48.1639 154.855 48.7382V48.7306Z" fill="#EAB3C2"/>
<path d="M150.036 56.7554C148.957 56.7554 147.984 56.3095 147.419 54.9343C147.042 54.0049 147.072 53.0452 147.517 52.1611C148.92 49.3804 154.056 48.0203 154.637 47.8767H154.652C157.812 47.1513 158.657 49.1764 159.268 50.6499L159.313 50.7557C160.286 53.0981 158.762 54.9116 157.819 55.5388C157.412 55.8108 156.869 55.6975 156.605 55.297C156.251 54.7681 155.104 55.1837 153.52 55.8259C152.502 56.2415 151.205 56.7629 150.036 56.7629V56.7554ZM155.059 49.5845C153.686 49.932 149.976 51.2015 149.093 52.9546C148.874 53.3853 148.859 53.8009 149.048 54.2618C149.485 55.3348 150.383 55.1837 152.864 54.1787C154.335 53.5817 156.107 52.8714 157.344 53.6044C157.721 53.1586 158.106 52.4029 157.699 51.4206L157.654 51.3148C157.028 49.8187 156.771 49.1915 155.059 49.5845Z" fill="#060001"/>
<path d="M88.4468 43.018C88.3185 42.6175 88.0319 42.3228 87.685 42.1641C87.7303 41.7788 87.6247 41.3783 87.3607 41.0609C87.0967 40.7511 86.7272 40.5849 86.3576 40.5698C86.252 40.2071 86.0031 39.8897 85.6486 39.7083C85.2791 39.5194 84.8642 39.5119 84.5022 39.6479C84.2684 39.3456 83.9064 39.1341 83.4916 39.1038C83.0918 39.0736 82.7147 39.2172 82.4357 39.4665C82.1038 39.2852 81.7116 39.2323 81.3194 39.3608C80.9272 39.4892 80.6256 39.7763 80.4672 40.1239C80.0825 40.0786 79.6828 40.1844 79.366 40.4489C79.0568 40.7133 78.8909 41.0836 78.8758 41.4538C78.5138 41.5596 78.197 41.809 78.016 42.1641C77.8274 42.5344 77.8199 42.95 77.9556 43.3127C77.6539 43.5469 77.4428 43.9096 77.4126 44.3252C77.3824 44.7257 77.5257 45.1035 77.7746 45.3831C77.5936 45.7156 77.5408 46.1085 77.669 46.5014C77.7973 46.8944 78.0838 47.1966 78.4308 47.3553C78.3855 47.7407 78.4911 48.1411 78.7551 48.4585C79.0191 48.7683 79.3886 48.9345 79.7582 48.9497C79.8638 49.3124 80.1127 49.6297 80.4672 49.8111C80.8367 50 81.2516 50.0075 81.6136 49.8715C81.8474 50.1738 82.2094 50.3854 82.6242 50.4156C83.024 50.4458 83.4011 50.3022 83.6801 50.0529C84.012 50.2342 84.4042 50.2871 84.7964 50.1587C85.1886 50.0302 85.4902 49.7431 85.6486 49.3955C86.0333 49.4408 86.433 49.335 86.7498 49.0706C87.059 48.8061 87.2249 48.4358 87.24 48.0656C87.602 47.9598 87.9188 47.7104 88.0998 47.3553C88.2884 46.985 88.2959 46.5694 88.1602 46.2067C88.4618 45.9725 88.673 45.6098 88.7032 45.1942C88.7334 44.7937 88.5901 44.4159 88.3412 44.1363C88.5222 43.8038 88.575 43.4109 88.4468 43.018Z" fill="#F36523"/>
<path d="M82.7223 50.8236C82.677 50.8236 82.6242 50.8236 82.579 50.8236C82.1642 50.7933 81.772 50.612 81.4703 50.3324C81.063 50.4155 80.6406 50.3626 80.2711 50.1737C79.9091 49.9848 79.6225 49.6901 79.4565 49.3199C79.0643 49.2443 78.7023 49.0327 78.4383 48.7229C78.1668 48.4056 78.016 48.0051 78.0084 47.5895C77.6615 47.3628 77.3975 47.0228 77.2693 46.6298C77.1411 46.2369 77.1562 45.8289 77.2919 45.4511C77.0657 45.1186 76.9601 44.7181 76.9902 44.3101C77.0204 43.8945 77.2014 43.5015 77.4805 43.1993C77.3975 42.7913 77.4503 42.3681 77.6389 41.9979C77.8274 41.6352 78.1216 41.348 78.4911 41.1818C78.5666 40.7813 78.7777 40.4261 79.087 40.1617C79.4037 39.8897 79.8035 39.7385 80.2183 39.731C80.4445 39.3834 80.7839 39.1189 81.1761 38.9905C81.5683 38.862 81.9756 38.8771 82.3602 39.0131C82.6921 38.794 83.0994 38.6806 83.4991 38.7109C83.9139 38.7411 84.3061 38.9224 84.6003 39.202C85.0075 39.1189 85.4299 39.1718 85.7995 39.3607C86.1615 39.5496 86.4481 39.8443 86.614 40.2146C87.0062 40.2901 87.3682 40.5017 87.6322 40.8115C87.9037 41.1289 88.0546 41.5294 88.0621 41.945C88.4091 42.1716 88.673 42.5117 88.8012 42.9046C88.9295 43.2975 88.9144 43.7056 88.7786 44.0834C89.0049 44.4159 89.1105 44.8163 89.0803 45.2244C89.0501 45.64 88.8691 46.0329 88.5901 46.3351C88.673 46.7432 88.6202 47.1663 88.4317 47.5366C88.2431 47.8993 87.949 48.1864 87.5794 48.3527C87.504 48.7532 87.2928 49.1083 86.9836 49.3728C86.6668 49.6448 86.2671 49.7959 85.8523 49.8035C85.626 50.1511 85.2866 50.4155 84.8944 50.544C84.5098 50.6649 84.0949 50.6573 83.7178 50.5213C83.4237 50.7178 83.0768 50.8236 82.7147 50.8236H82.7223ZM81.606 49.4786C81.7267 49.4786 81.8398 49.5315 81.9153 49.6297C82.0963 49.8639 82.3527 49.9999 82.6393 50.0226C82.9184 50.0453 83.1899 49.947 83.4011 49.7581C83.5217 49.6448 83.7103 49.6221 83.8536 49.7052C84.1025 49.8413 84.3891 49.8715 84.6531 49.7808C84.9246 49.6901 85.1508 49.4937 85.2715 49.2292C85.3394 49.0705 85.5053 48.9723 85.6788 49.0025C85.9729 49.0403 86.252 48.9572 86.4707 48.7683C86.6819 48.5869 86.8101 48.33 86.8252 48.0429C86.8327 47.8766 86.9459 47.7331 87.1118 47.6802C87.3833 47.6046 87.602 47.4157 87.7378 47.1663C87.8736 46.9094 87.8886 46.6147 87.7831 46.3351C87.7227 46.1765 87.7755 45.9876 87.9113 45.8818C88.1375 45.708 88.2808 45.436 88.3035 45.1488C88.3261 44.8692 88.228 44.5972 88.0395 44.3856C87.9264 44.2572 87.9037 44.0758 87.9867 43.9323C88.1225 43.6829 88.1526 43.3958 88.0621 43.1313C87.9716 42.8517 87.7755 42.6326 87.5115 42.5117C87.3532 42.4437 87.2626 42.2774 87.2853 42.1036C87.323 41.8089 87.24 41.5294 87.0515 41.3102C86.8705 41.0987 86.614 40.9702 86.3274 40.9551C86.1615 40.9475 86.0182 40.8342 85.9654 40.6679C85.8824 40.3959 85.7014 40.1692 85.4525 40.0408C85.1961 39.9123 84.8944 39.8972 84.6229 39.9954C84.4645 40.0559 84.276 40.003 84.1704 39.867C83.9894 39.6403 83.7254 39.4967 83.4463 39.4741C83.1673 39.4514 82.8957 39.5421 82.6846 39.7385C82.5563 39.8519 82.3753 39.8745 82.232 39.7914C81.9831 39.6554 81.6965 39.6252 81.4326 39.7159C81.1535 39.8065 80.9348 40.003 80.8141 40.2675C80.7462 40.4261 80.5728 40.5168 80.4068 40.4942C80.1202 40.4639 79.8336 40.5395 79.6149 40.7284C79.4037 40.9097 79.2755 41.1667 79.2604 41.4538C79.2529 41.62 79.1398 41.7636 78.9738 41.8165C78.7023 41.8996 78.4836 42.081 78.3554 42.3303C78.2272 42.5872 78.2045 42.8895 78.3101 43.1615C78.3705 43.3202 78.3177 43.5091 78.1819 43.6149C77.9556 43.7887 77.8123 44.0607 77.7897 44.3403C77.7671 44.6199 77.8576 44.8919 78.0537 45.1035C78.1668 45.2319 78.1894 45.4133 78.1065 45.5569C77.9707 45.8062 77.9406 46.0933 78.0311 46.3578C78.1216 46.6298 78.3177 46.8565 78.5816 46.9774C78.74 47.0454 78.8305 47.2117 78.8079 47.3855C78.7702 47.6726 78.8607 47.9597 79.0417 48.1789C79.2227 48.3905 79.4792 48.5189 79.7658 48.534C79.9317 48.5416 80.075 48.6549 80.1278 48.8212C80.2107 49.0932 80.3917 49.3199 80.6406 49.4483C80.8971 49.5843 81.1912 49.5995 81.4627 49.4937C81.508 49.4786 81.5532 49.471 81.5985 49.471L81.606 49.4786Z" fill="black"/>
<path d="M86.1841 42.5039C85.2338 41.174 83.5067 40.5468 81.87 41.0758C80.2334 41.6047 79.1925 43.1235 79.1925 44.7557C80.1202 44.1134 81.2591 43.5467 82.5337 43.1386C83.8083 42.7306 85.0603 42.519 86.1917 42.5039H86.1841Z" fill="black"/>
<path d="M79.185 45.1563C79.1247 45.1563 79.0568 45.1411 79.004 45.1109C78.8758 45.0429 78.7928 44.9069 78.7928 44.7633C78.7928 42.9045 79.9769 41.2723 81.7418 40.7056C83.5067 40.1389 85.4224 40.7661 86.5009 42.2773C86.5839 42.3982 86.5989 42.5569 86.5311 42.6854C86.4632 42.8138 86.335 42.8969 86.1841 42.9045C85.0603 42.9196 83.8385 43.1387 82.6393 43.5241C81.4476 43.9095 80.3239 44.4535 79.4037 45.0883C79.3358 45.1336 79.2604 45.1563 79.1775 45.1563H79.185ZM83.0541 41.2875C82.6996 41.2875 82.3376 41.3403 81.9831 41.4537C80.799 41.8391 79.9317 42.8063 79.6677 43.9775C80.4973 43.4863 81.425 43.0707 82.4055 42.7609C83.3784 42.4436 84.3815 42.2395 85.3394 42.1489C84.7059 41.5897 83.8913 41.2799 83.0541 41.2799V41.2875Z" fill="black"/>
<path d="M84.2307 48.4356C86.2595 47.7782 87.3758 45.602 86.7196 43.5693C86.5914 43.1764 86.4104 42.8213 86.1841 42.4963C85.0528 42.5115 83.8008 42.723 82.5262 43.1311C81.2516 43.5391 80.1127 44.1058 79.185 44.7481C79.185 45.141 79.2453 45.5415 79.3736 45.9344C80.0297 47.9671 82.2019 49.0854 84.2307 48.428V48.4356Z" fill="#FEC708"/>
<path d="M83.0541 49.0175C81.2591 49.0175 79.5847 47.8689 79.004 46.063C78.8682 45.6398 78.8004 45.2016 78.8004 44.7558C78.8004 44.6273 78.8607 44.5064 78.9738 44.4308C79.9618 43.7432 81.1535 43.1689 82.4206 42.7609C83.6877 42.3529 84.9925 42.1262 86.1917 42.1035C86.335 42.1035 86.4405 42.164 86.516 42.2698C86.7724 42.6325 86.9685 43.0254 87.1118 43.4485C87.8283 45.6852 86.5989 48.0881 84.3665 48.8135C83.9366 48.9495 83.4991 49.0175 83.0692 49.0175H83.0541ZM79.5923 44.9598C79.6074 45.2545 79.6602 45.5416 79.7507 45.8136C80.339 47.6347 82.2924 48.6397 84.11 48.0579C85.9277 47.4685 86.9308 45.5114 86.35 43.6903C86.2595 43.4107 86.1389 43.1463 85.9805 42.8969C84.917 42.9347 83.7706 43.1463 82.6544 43.509C81.5382 43.8717 80.4823 44.3704 79.5923 44.9598Z" fill="black"/>
<path d="M82.232 44.5368C82.1717 44.5595 82.1189 44.6048 82.0812 44.6653C82.0435 44.7484 82.0359 44.8542 82.0661 44.9524C82.1264 45.1337 82.2773 45.2395 82.4281 45.2018C82.4281 45.2018 82.4281 45.2018 82.4357 45.2018C82.496 45.1791 82.5488 45.1337 82.5865 45.0733C82.6242 44.9902 82.6318 44.8844 82.6016 44.7862C82.5413 44.5973 82.3753 44.4915 82.2245 44.5444L82.232 44.5368Z" fill="black"/>
<path d="M83.5142 44.1362C83.4539 44.1589 83.4011 44.2042 83.3634 44.2647C83.3256 44.3478 83.3181 44.4536 83.3483 44.5518C83.4086 44.7332 83.5594 44.8389 83.7103 44.8012C83.7103 44.8012 83.7103 44.8012 83.7178 44.8012C83.7782 44.7785 83.831 44.7332 83.8687 44.6727C83.9064 44.5896 83.9139 44.4838 83.8838 44.3856C83.8234 44.1967 83.6575 44.0833 83.5067 44.1438L83.5142 44.1362Z" fill="black"/>
<path d="M82.7449 46.8564C81.689 46.8564 81.1761 46.1688 81.146 46.131C81.063 46.0101 81.0856 45.8515 81.2063 45.7608C81.3194 45.6777 81.4854 45.7003 81.5759 45.8137C81.606 45.8515 82.2019 46.6071 83.4765 46.1991C84.7888 45.7759 84.9246 44.5216 84.9246 44.514C84.9397 44.3704 85.0528 44.2646 85.2112 44.2798C85.3545 44.2949 85.4601 44.4233 85.445 44.5669C85.445 44.6349 85.2715 46.1764 83.6349 46.7053C83.303 46.8111 83.0089 46.8564 82.7449 46.8564Z" fill="black"/>
<path d="M78.6344 43.6074C78.6344 43.6074 77.3447 42.5798 76.1606 44.2195C76.1606 44.2195 75.5648 42.474 77.307 42.3153C78.7928 42.1793 78.6344 43.6074 78.6344 43.6074Z" fill="black"/>
<path d="M76.1606 44.6123C76.1606 44.6123 76.1229 44.6123 76.1003 44.6123C75.957 44.5896 75.8363 44.4914 75.7835 44.3478C75.7458 44.2496 75.4592 43.3428 75.9193 42.6401C76.1908 42.2245 76.6433 41.9827 77.2693 41.9222C77.835 41.8693 78.2875 42.0054 78.6043 42.3303C79.102 42.8365 79.0342 43.5695 79.0266 43.6526C79.0115 43.7962 78.921 43.9171 78.7853 43.9775C78.6495 44.0304 78.4987 44.0153 78.3931 43.9247C78.378 43.9095 77.9933 43.63 77.5257 43.7055C77.1562 43.7584 76.8017 44.0153 76.4774 44.4611C76.402 44.5669 76.2813 44.6274 76.1606 44.6274V44.6123ZM77.4956 42.7005C77.4428 42.7005 77.3975 42.7005 77.3372 42.7005C76.9676 42.7308 76.7112 42.8517 76.583 43.0557C76.5302 43.1312 76.5 43.2144 76.4849 43.305C76.7791 43.0859 77.0958 42.9499 77.4277 42.9046C77.669 42.8668 77.8953 42.8894 78.0914 42.9348C78.0763 42.9121 78.0612 42.8894 78.0386 42.8743C77.9179 42.7534 77.7369 42.693 77.4956 42.693V42.7005Z" fill="black"/>
<path d="M79.102 44.6122C79.102 44.6122 78.9814 44.6046 78.9512 44.5971C78.7702 44.5593 78.6118 44.4459 78.5138 44.2948C78.4157 44.1361 78.378 43.9472 78.4157 43.7659L78.6269 42.7987C78.6948 42.4813 78.9814 42.2471 79.3132 42.2471C79.3434 42.2471 79.4339 42.2546 79.4641 42.2622C79.8412 42.3453 80.0825 42.7156 79.9996 43.0934L79.7884 44.0606C79.7205 44.3779 79.4339 44.6122 79.102 44.6122Z" fill="#FEC708"/>
<path d="M79.3057 42.6325C79.3057 42.6325 79.3509 42.6325 79.3736 42.6325C79.5395 42.6703 79.6451 42.829 79.6074 42.9952L79.3962 43.9624C79.366 44.106 79.2378 44.2042 79.102 44.2042C79.0794 44.2042 79.0568 44.2042 79.0342 44.2042C78.8682 44.1665 78.7626 44.0078 78.8004 43.8415L79.0115 42.8743C79.0417 42.7308 79.1699 42.6325 79.3057 42.6325ZM79.3057 41.8467C78.7928 41.8467 78.3478 42.2094 78.2347 42.7081L78.0235 43.6753C77.9632 43.9624 78.016 44.2571 78.1744 44.4989C78.3327 44.7483 78.5741 44.9145 78.8607 44.975C78.9361 44.9901 79.0115 44.9976 79.0945 44.9976C79.6074 44.9976 80.0524 44.6349 80.1655 44.1362L80.3767 43.169C80.437 42.8819 80.3842 42.5872 80.2258 42.3454C80.0674 42.096 79.8261 41.9298 79.5395 41.8693C79.4641 41.8542 79.3886 41.8467 79.3057 41.8467Z" fill="black"/>
<path d="M85.9654 41.2498C85.9654 41.2498 86.4179 39.663 88.3336 40.2977C88.3336 40.2977 87.8057 38.5295 86.2972 39.4212C85.0151 40.1768 85.9729 41.2498 85.9729 41.2498H85.9654Z" fill="black"/>
<path d="M85.9654 41.6426C85.8523 41.6426 85.7467 41.5972 85.6712 41.5141C85.6185 41.4537 85.1358 40.887 85.2413 40.1918C85.3092 39.746 85.5958 39.3757 86.0861 39.081C86.6291 38.7637 87.1344 38.6956 87.602 38.877C88.3864 39.1868 88.673 40.086 88.7032 40.1842C88.7484 40.3278 88.7032 40.4789 88.5976 40.5847C88.492 40.6905 88.3412 40.7207 88.1979 40.6754C87.6775 40.5016 87.24 40.5016 86.9082 40.6754C86.4783 40.9021 86.335 41.3555 86.335 41.363C86.2973 41.499 86.1841 41.6048 86.0408 41.635C86.0106 41.635 85.9805 41.6426 85.9503 41.6426H85.9654ZM87.0892 39.5646C86.9157 39.5646 86.7121 39.6326 86.4933 39.7611C86.2143 39.9273 86.0559 40.1087 86.0257 40.3051C86.0257 40.3354 86.0257 40.358 86.0257 40.3882C86.1615 40.2371 86.335 40.086 86.5537 39.9727C86.8554 39.814 87.2023 39.7384 87.5568 39.746C87.4889 39.6855 87.4135 39.6326 87.3305 39.6024C87.2626 39.5722 87.1872 39.5646 87.1043 39.5646H87.0892Z" fill="black"/>
<path d="M85.7618 42.4662C85.5883 42.4662 85.4224 42.3982 85.2941 42.2848L84.5626 41.6199C84.276 41.363 84.2533 40.9171 84.5098 40.63C84.6455 40.4864 84.8341 40.3958 85.0302 40.3958C85.2036 40.3958 85.3696 40.4638 85.4978 40.5771L86.2294 41.2421C86.3651 41.3705 86.4481 41.5368 86.4556 41.7257C86.4632 41.9146 86.4028 42.0884 86.2746 42.2319C86.1464 42.3755 85.9579 42.4586 85.7542 42.4586L85.7618 42.4662Z" fill="#FEC708"/>
<path d="M85.0302 40.7963C85.1056 40.7963 85.1735 40.819 85.2338 40.8719L85.9654 41.5368C86.0936 41.6502 86.1012 41.8391 85.988 41.9675C85.9277 42.0356 85.8447 42.0658 85.7618 42.0658C85.6863 42.0658 85.6185 42.0431 85.5581 41.9902L84.8265 41.3253C84.6983 41.2119 84.6908 41.023 84.8039 40.8946C84.8642 40.8265 84.9472 40.7963 85.0302 40.7963ZM85.0302 40.0029C84.7209 40.0029 84.4268 40.1314 84.2232 40.3656C84.0271 40.5847 83.929 40.8643 83.9441 41.1515C83.9592 41.4462 84.0874 41.7106 84.2986 41.9071L85.0302 42.572C85.2338 42.7534 85.4902 42.8592 85.7618 42.8592C86.071 42.8592 86.3651 42.7307 86.5688 42.4965C86.976 42.0507 86.9383 41.3555 86.4933 40.9475L85.7618 40.2825C85.5581 40.1011 85.3017 39.9954 85.0302 39.9954V40.0029Z" fill="black"/>
<path d="M177.927 81.0409C177.663 79.847 176.479 79.0838 175.287 79.3483C174.095 79.6128 173.334 80.7991 173.598 81.993C173.628 82.1366 173.673 82.2801 173.733 82.4086C173.266 82.3481 172.783 82.3632 172.293 82.469C171.803 82.5748 171.358 82.7637 170.965 83.0206C170.965 82.8771 170.943 82.7335 170.913 82.5899C170.649 81.396 169.465 80.6329 168.273 80.8973C167.081 81.1618 166.319 82.3481 166.583 83.542C166.847 84.7359 168.032 85.4991 169.223 85.2346C169.231 85.2346 169.238 85.2346 169.253 85.2346C169.027 85.9147 168.974 86.6703 169.14 87.4259C169.63 89.6626 171.84 91.0756 174.073 90.5845C176.305 90.0933 177.716 87.8793 177.225 85.6427C177.059 84.887 176.697 84.2296 176.207 83.7007C176.215 83.7007 176.222 83.7007 176.237 83.7007C177.429 83.4362 178.191 82.2499 177.927 81.056V81.0409Z" fill="#EAB3C2"/>
<path d="M25.7036 48.5944C25.9601 47.3929 25.1983 46.2142 24.0067 45.9573C22.815 45.7003 21.6309 46.4635 21.3744 47.6574C21.3443 47.801 21.3292 47.9446 21.3216 48.0881C20.9219 47.8388 20.4769 47.6499 19.9867 47.5441C19.4964 47.4383 19.0138 47.4232 18.5461 47.4912C18.6065 47.3627 18.6442 47.2192 18.6819 47.0756C18.9383 45.8741 18.1766 44.6954 16.9849 44.4384C15.7933 44.1815 14.6091 44.9447 14.3527 46.1386C14.0963 47.3325 14.858 48.5188 16.0497 48.7757C16.0572 48.7757 16.0648 48.7757 16.0799 48.7757C15.5896 49.3047 15.2351 49.9621 15.0692 50.7177C14.5865 52.9544 16.012 55.1608 18.2445 55.6444C20.4769 56.128 22.6792 54.6999 23.1619 52.4632C23.3279 51.7076 23.2675 50.9595 23.0413 50.2719C23.0488 50.2719 23.0563 50.2719 23.0714 50.2719C24.2706 50.5288 25.4472 49.7656 25.7036 48.5717V48.5944Z" fill="#EAB3C2"/>
<path d="M145.186 103.408C145.443 102.206 144.681 101.027 143.489 100.77C142.298 100.514 141.114 101.277 140.857 102.471C140.827 102.614 140.812 102.758 140.804 102.901C140.405 102.652 139.96 102.463 139.469 102.357C138.979 102.252 138.496 102.236 138.029 102.304C138.089 102.176 138.127 102.032 138.165 101.889C138.421 100.687 137.659 99.5086 136.468 99.2517C135.276 98.9948 134.092 99.7579 133.835 100.952C133.579 102.146 134.341 103.332 135.532 103.589C135.54 103.589 135.547 103.589 135.563 103.589C135.072 104.118 134.718 104.775 134.552 105.531C134.069 107.768 135.495 109.974 137.727 110.458C139.96 110.941 142.162 109.513 142.645 107.276C142.811 106.521 142.75 105.773 142.524 105.085C142.532 105.085 142.539 105.085 142.554 105.085C143.753 105.342 144.93 104.579 145.186 103.385V103.408Z" fill="#EAB3C2"/>
<path d="M91.6371 8.57633C91.2223 7.42022 89.9476 6.82328 88.8012 7.24643C87.6548 7.66958 87.0515 8.93904 87.4738 10.0876C87.5266 10.2236 87.587 10.3596 87.6624 10.4805C87.1948 10.4805 86.7121 10.5561 86.2444 10.7299C85.7768 10.9037 85.3545 11.1455 85 11.4477C84.9774 11.3041 84.9397 11.1681 84.8944 11.0246C84.4796 9.86846 83.205 9.27151 82.0586 9.69466C80.9122 10.1178 80.3088 11.3873 80.7311 12.5358C81.1535 13.6844 82.4206 14.2889 83.567 13.8657C83.5745 13.8657 83.5821 13.8657 83.5896 13.8582C83.4539 14.5685 83.4991 15.3165 83.7631 16.0419C84.5399 18.1955 86.9157 19.3138 89.0652 18.5355C91.2147 17.7572 92.331 15.377 91.5541 13.2234C91.2901 12.498 90.8452 11.8935 90.2946 11.4326C90.3021 11.4326 90.3097 11.4326 90.3172 11.425C91.4712 11.0095 92.067 9.73244 91.6446 8.58389L91.6371 8.57633Z" fill="#EAB3C2"/>
</g>
<defs>
<clipPath id="clip0_208_7">
<rect width="187" height="141" fill="white"/>
</clipPath>
</defs>
</svg>
