<svg width="430" height="308" viewBox="0 0 430 308" fill="none" xmlns="http://www.w3.org/2000/svg">
<rect width="430" height="308" fill="#F6F6F6"/>
<path d="M155.647 78V66.6851H162.454V67.9337H157.05V71.7127H161.945V72.9503H157.05V78H155.647ZM165.957 66.6851V78H164.553V66.6851H165.957ZM177.443 66.6851V78H176.095L169.973 69.1934H169.863V78H168.46V66.6851H169.819L175.951 75.5138H176.062V66.6851H177.443ZM183.458 78H180.728V76.7514H183.369C184.279 76.7514 185.04 76.5746 185.651 76.221C186.266 75.8674 186.725 75.361 187.027 74.7017C187.329 74.0424 187.48 73.2486 187.48 72.3204C187.48 71.4033 187.331 70.6188 187.032 69.9669C186.734 69.3112 186.288 68.8085 185.695 68.4586C185.106 68.1087 184.379 67.9337 183.513 67.9337H180.662V66.6851H183.601C184.695 66.6851 185.635 66.9098 186.419 67.3591C187.207 67.8085 187.809 68.4567 188.226 69.3039C188.642 70.151 188.85 71.1565 188.85 72.3204C188.85 73.4991 188.64 74.5138 188.22 75.3646C187.8 76.2155 187.185 76.8674 186.375 77.3204C185.568 77.7735 184.596 78 183.458 78ZM181.347 66.6851V78H179.944V66.6851H181.347ZM193.956 66.6851H195.569L198.685 71.9448H198.818L201.934 66.6851H203.547L199.459 73.3591V78H198.044V73.3591L193.956 66.6851ZM214.107 72.3425C214.107 73.5138 213.893 74.5378 213.466 75.4144C213.039 76.291 212.446 76.9669 211.687 77.442C210.928 77.9171 210.066 78.1547 209.101 78.1547C208.133 78.1547 207.269 77.9171 206.51 77.442C205.755 76.9669 205.164 76.291 204.737 75.4144C204.309 74.5378 204.096 73.5138 204.096 72.3425C204.096 71.1713 204.309 70.1473 204.737 69.2707C205.164 68.3941 205.755 67.7182 206.51 67.2431C207.269 66.768 208.133 66.5304 209.101 66.5304C210.066 66.5304 210.928 66.768 211.687 67.2431C212.446 67.7182 213.039 68.3941 213.466 69.2707C213.893 70.1473 214.107 71.1713 214.107 72.3425ZM212.737 72.3425C212.737 71.3959 212.578 70.5856 212.261 69.9116C211.945 69.2339 211.512 68.7201 210.963 68.3702C210.414 68.0203 209.794 67.8453 209.101 67.8453C208.409 67.8453 207.788 68.0203 207.239 68.3702C206.691 68.7201 206.258 69.2339 205.941 69.9116C205.624 70.5856 205.466 71.3959 205.466 72.3425C205.466 73.2891 205.624 74.1013 205.941 74.779C206.258 75.453 206.691 75.965 207.239 76.3149C207.788 76.6648 208.409 76.8398 209.101 76.8398C209.794 76.8398 210.414 76.6648 210.963 76.3149C211.512 75.965 211.945 75.453 212.261 74.779C212.578 74.1013 212.737 73.2891 212.737 72.3425ZM223.566 66.6851H224.98V74.1657C224.98 74.9392 224.798 75.6317 224.433 76.2431C224.069 76.8545 223.551 77.3333 222.881 77.6796C222.214 78.0258 221.444 78.1989 220.572 78.1989C219.695 78.1989 218.923 78.0258 218.257 77.6796C217.59 77.3333 217.074 76.8545 216.71 76.2431C216.345 75.6317 216.163 74.9392 216.163 74.1657V66.6851H217.566V74.0552C217.566 74.6041 217.688 75.0939 217.931 75.5249C218.174 75.9521 218.522 76.2855 218.975 76.5249C219.428 76.7643 219.96 76.884 220.572 76.884C221.183 76.884 221.715 76.7643 222.168 76.5249C222.621 76.2855 222.967 75.9521 223.207 75.5249C223.446 75.0939 223.566 74.6041 223.566 74.0552V66.6851ZM227.475 78V66.6851H231.32C232.179 66.6851 232.895 66.8324 233.47 67.1271C234.048 67.4217 234.477 67.8306 234.757 68.3536C235.037 68.8729 235.177 69.477 235.177 70.1657C235.177 70.8508 235.037 71.4512 234.757 71.9669C234.477 72.4825 234.052 72.884 233.481 73.1713C232.91 73.4586 232.197 73.6022 231.343 73.6022H228.249V72.3315H231.276C231.866 72.3315 232.346 72.2468 232.718 72.0773C233.09 71.9079 233.361 71.663 233.53 71.3425C233.7 71.0184 233.785 70.6262 233.785 70.1657C233.785 69.7017 233.698 69.3039 233.525 68.9724C233.352 68.6409 233.079 68.3849 232.707 68.2044C232.335 68.0239 231.855 67.9337 231.265 67.9337H228.878V78H227.475ZM232.834 72.9171L235.619 78H233.983L231.243 72.9171H232.834ZM240.606 67.9337V66.6851H249.126V67.9337H245.579V78H244.164V67.9337H240.606ZM251.006 78V66.6851H254.852C255.71 66.6851 256.426 66.8324 257.001 67.1271C257.579 67.4217 258.008 67.8306 258.288 68.3536C258.568 68.8729 258.708 69.477 258.708 70.1657C258.708 70.8508 258.568 71.4512 258.288 71.9669C258.008 72.4825 257.583 72.884 257.012 73.1713C256.441 73.4586 255.728 73.6022 254.874 73.6022H251.78V72.3315H254.808C255.397 72.3315 255.878 72.2468 256.25 72.0773C256.622 71.9079 256.892 71.663 257.062 71.3425C257.231 71.0184 257.316 70.6262 257.316 70.1657C257.316 69.7017 257.229 69.3039 257.056 68.9724C256.883 68.6409 256.61 68.3849 256.238 68.2044C255.866 68.0239 255.386 67.9337 254.796 67.9337H252.41V78H251.006ZM256.366 72.9171L259.15 78H257.515L254.774 72.9171H256.366ZM262.144 66.6851V78H260.741V66.6851H262.144ZM264.647 78V66.6851H268.492C269.347 66.6851 270.063 66.8416 270.642 67.1547C271.22 67.4678 271.649 67.895 271.929 68.4365C272.209 68.9742 272.349 69.5875 272.349 70.2762C272.349 70.965 272.209 71.582 271.929 72.1271C271.649 72.6685 271.222 73.0976 270.647 73.4144C270.072 73.7311 269.362 73.8895 268.514 73.8895H265.763V72.6409H268.448C269.026 72.6409 269.502 72.5396 269.874 72.337C270.249 72.1344 270.524 71.8582 270.697 71.5083C270.87 71.1547 270.956 70.744 270.956 70.2762C270.956 69.8085 270.87 69.4015 270.697 69.0552C270.524 68.7053 270.249 68.4309 269.874 68.232C269.502 68.0331 269.023 67.9337 268.437 67.9337H266.05V78H264.647ZM274.572 78.0884C274.392 78.0884 274.222 78.0424 274.064 77.9503C273.909 77.8582 273.786 77.7366 273.694 77.5856C273.605 77.4309 273.563 77.2634 273.567 77.0829C273.563 76.9024 273.605 76.7366 273.694 76.5856C273.786 76.4309 273.909 76.3076 274.064 76.2155C274.222 76.1234 274.392 76.0773 274.572 76.0773C274.753 76.0773 274.918 76.1234 275.069 76.2155C275.224 76.3076 275.348 76.4309 275.44 76.5856C275.532 76.7366 275.578 76.9024 275.578 77.0829C275.578 77.2634 275.532 77.4309 275.44 77.5856C275.348 77.7366 275.224 77.8582 275.069 77.9503C274.918 78.0424 274.753 78.0884 274.572 78.0884ZM180.432 98.6492V120.329H176.843V98.6492H180.432ZM177.979 106.729V109.762H174.664V106.729H177.979ZM175.584 98.8978V119.392H172.045V98.8978H175.584ZM170.835 100.729V115.133H162.017V100.729H170.835ZM165.523 103.655V112.199H167.338V103.655H165.523ZM193.226 101.724C193.226 103.033 192.917 104.227 192.298 105.304C191.685 106.381 190.724 107.287 189.414 108.022C188.11 108.757 186.464 109.243 184.475 109.481L183.108 106.547C184.776 106.359 186.122 106.011 187.144 105.503C188.171 104.989 188.898 104.403 189.323 103.746C189.754 103.088 189.972 102.414 189.978 101.724V101.235H193.226V101.724ZM194.362 101.724C194.356 102.414 194.563 103.088 194.983 103.746C195.409 104.403 196.135 104.989 197.163 105.503C198.191 106.011 199.552 106.359 201.249 106.547L199.898 109.481C197.892 109.243 196.232 108.757 194.917 108.022C193.608 107.287 192.638 106.381 192.008 105.304C191.384 104.227 191.075 103.033 191.08 101.724V101.235H194.362V101.724ZM193.947 112.555V120.345H190.218V112.555H193.947ZM202.036 110.359V113.343H182.271V110.359H202.036ZM200.337 99.6602V102.561H184.003V99.6602H200.337ZM224.317 99.5442V102.503H210.601V99.5442H224.317ZM228.038 107.185V110.177H208.239V107.185H228.038ZM225.866 101.351V101.434C225.866 102.24 225.855 102.945 225.833 103.547C225.811 104.144 225.753 104.812 225.659 105.552C225.571 106.293 225.427 107.077 225.228 107.906L221.441 107.848C221.64 107.03 221.786 106.257 221.88 105.528C221.974 104.793 222.032 104.141 222.054 103.572C222.082 103.003 222.099 102.285 222.104 101.417V101.351V99.5442H225.866V101.351ZM225.668 112.041V120.122H210.518V112.041H225.668ZM214.198 114.959V117.13H221.938V114.959H214.198ZM236.813 109.58V115.406H233.084V109.58H236.813ZM244.711 109.58V115.406H240.915V109.58H244.711ZM248.78 114.917V117.959H228.982V114.917H248.78ZM238.86 99.5193C240.429 99.5193 241.843 99.768 243.103 100.265C244.363 100.757 245.355 101.459 246.078 102.37C246.808 103.276 247.172 104.315 247.172 105.486C247.172 106.674 246.81 107.718 246.087 108.619C245.368 109.519 244.379 110.215 243.12 110.707C241.86 111.193 240.44 111.436 238.86 111.436C237.274 111.436 235.855 111.193 234.6 110.707C233.346 110.215 232.363 109.519 231.65 108.619C230.937 107.718 230.584 106.674 230.589 105.486C230.584 104.309 230.937 103.268 231.65 102.362C232.363 101.456 233.349 100.757 234.609 100.265C235.868 99.768 237.285 99.5193 238.86 99.5193ZM238.86 102.453C237.915 102.448 237.103 102.561 236.424 102.793C235.744 103.019 235.222 103.362 234.857 103.82C234.498 104.273 234.319 104.829 234.319 105.486C234.319 106.127 234.498 106.677 234.857 107.135C235.222 107.594 235.747 107.945 236.432 108.188C237.117 108.431 237.926 108.552 238.86 108.552C239.783 108.547 240.587 108.425 241.272 108.188C241.962 107.945 242.493 107.594 242.863 107.135C243.239 106.677 243.426 106.127 243.426 105.486C243.426 104.829 243.239 104.273 242.863 103.82C242.493 103.362 241.965 103.019 241.28 102.793C240.595 102.561 239.788 102.448 238.86 102.453ZM255.898 99.1961C256.997 99.1961 257.995 99.4144 258.89 99.8508C259.785 100.282 260.492 100.881 261.011 101.649C261.536 102.417 261.798 103.282 261.798 104.243C261.798 105.193 261.536 106.052 261.011 106.82C260.492 107.583 259.785 108.182 258.89 108.619C257.995 109.05 256.997 109.265 255.898 109.265C254.776 109.265 253.76 109.05 252.848 108.619C251.942 108.182 251.229 107.583 250.71 106.82C250.196 106.052 249.939 105.193 249.939 104.243C249.939 103.282 250.196 102.417 250.71 101.649C251.229 100.881 251.942 100.282 252.848 99.8508C253.76 99.4144 254.776 99.1961 255.898 99.1961ZM255.898 102.238C255.439 102.243 255.036 102.32 254.688 102.47C254.34 102.613 254.066 102.837 253.867 103.141C253.669 103.439 253.572 103.807 253.577 104.243C253.572 104.674 253.669 105.041 253.867 105.345C254.066 105.644 254.34 105.87 254.688 106.025C255.036 106.174 255.439 106.251 255.898 106.257C256.34 106.251 256.732 106.174 257.075 106.025C257.423 105.87 257.691 105.644 257.878 105.345C258.066 105.041 258.16 104.674 258.16 104.243C258.16 103.807 258.066 103.439 257.878 103.141C257.691 102.837 257.423 102.613 257.075 102.47C256.732 102.32 256.34 102.243 255.898 102.238ZM268.014 98.6492V109.356H264.235V98.6492H268.014ZM268.014 110.152V116.45H256.901V118.696H253.238V113.749H264.251V113.003H253.188V110.152H268.014ZM268.478 117.196V120.122H253.238V117.196H268.478ZM113.427 149.53V152.448H97.8887V149.53H113.427ZM115.491 154.975V158H95.6926V154.975H115.491ZM113.303 140.083V143.091H101.709V150.293H97.8887V140.083H113.303ZM112.764 144.782V147.699H100.599V144.782H112.764ZM134.725 138.682V150.873H130.946V138.682H134.725ZM119.567 147.492H119.766C121.534 147.492 122.907 147.483 123.885 147.467C124.863 147.445 125.824 147.398 126.769 147.326C127.719 147.254 128.661 147.135 129.595 146.97L130.059 149.945C128.612 150.199 127.125 150.365 125.6 150.442C124.076 150.519 122.065 150.555 119.567 150.55H117.578V147.492H119.567ZM127.689 139.586V146.423H121.275V149.497H117.578V143.622H123.968V142.561H117.562V139.586H127.689ZM123.694 151.644V153.069H130.962V151.644H134.725V160.122H119.973V151.644H123.694ZM123.694 157.13H130.962V155.92H123.694V157.13ZM139.298 152.331C140.437 152.326 141.37 152.315 142.1 152.298C142.829 152.276 143.586 152.232 144.37 152.166C145.16 152.094 145.953 151.983 146.749 151.834L147.089 154.859C145.873 155.091 144.685 155.24 143.525 155.307C142.365 155.373 140.956 155.406 139.298 155.406H137.707V152.331H139.298ZM145.332 140.655V149.348H141.312V153.541H137.707V146.439H141.718V143.605H137.691V140.655H145.332ZM156.031 138.649V160.329H152.492V138.649H156.031ZM149.508 145.801V148.826H146.16V145.801H149.508ZM151.522 138.972V159.343H148.017V138.972H151.522ZM176.4 138.649V160.395H172.679V138.649H176.4ZM173.093 145.975V148.95H169.372V145.975H173.093ZM160.662 152.638C162.563 152.644 164.209 152.616 165.601 152.555C166.999 152.489 168.414 152.354 169.845 152.149L170.201 155.133C168.72 155.343 167.237 155.486 165.751 155.564C164.264 155.635 162.568 155.674 160.662 155.68H158.897V152.638H160.662ZM169.032 140.365V143.381H162.651V153.558H158.897V140.365H169.032ZM168.361 146.373V149.29H161.839V146.373H168.361ZM198.443 148.138V150.881H178.645V148.138H198.443ZM196.147 151.536V156.981H184.562V158.448H180.833V154.669H192.418V154.072H180.824V151.536H196.147ZM196.736 157.685V160.188H180.833V157.685H196.736ZM196.147 138.89V144.359H184.769V145.801H181.04V142.03H192.385V141.384H181.023V138.89H196.147ZM196.512 145.055V147.525H181.04V145.055H196.512ZM224.428 154.942V157.975H204.63V154.942H224.428ZM216.357 150.599V155.646H212.644V150.599H216.357ZM210.34 139.934V142.967H218.627V139.934H222.373V151.362H206.578V139.934H210.34ZM210.34 148.387H218.627V145.909H210.34V148.387ZM244.16 138.649V160.329H240.571V138.649H244.16ZM241.508 146.746V149.738H238.201V146.746H241.508ZM239.245 138.956V159.326H235.74V138.956H239.245ZM229.872 140.903V153.434H226.11V140.903H229.872ZM227.651 152.017C228.861 152.022 230.044 151.986 231.198 151.909C232.353 151.826 233.535 151.669 234.745 151.436L235.102 154.652C233.776 154.873 232.494 155.03 231.256 155.124C230.019 155.218 228.817 155.262 227.651 155.257H226.11V152.017H227.651ZM263.866 148.445V151.42H248.319V148.445H263.866ZM265.913 154.826V157.901H246.114V154.826H265.913ZM263.741 140.34V143.348H252.023V149.671H248.319V140.34H263.741ZM285.147 138.682V150.873H281.368V138.682H285.147ZM269.989 147.492H270.188C271.956 147.492 273.329 147.483 274.307 147.467C275.285 147.445 276.246 147.398 277.191 147.326C278.141 147.254 279.083 147.135 280.017 146.97L280.481 149.945C279.033 150.199 277.547 150.365 276.022 150.442C274.497 150.519 272.486 150.555 269.989 150.55H268V147.492H269.989ZM278.111 139.586V146.423H271.696V149.497H268V143.622H274.39V142.561H267.984V139.586H278.111ZM274.116 151.644V153.069H281.384V151.644H285.147V160.122H270.395V151.644H274.116ZM274.116 157.13H281.384V155.92H274.116V157.13ZM306.038 138.649V160.329H302.292V138.649H306.038ZM292.331 140.688V154.18H288.602V140.688H292.331ZM290.607 151.959C292.259 151.964 293.958 151.895 295.704 151.751C297.455 151.602 299.176 151.37 300.867 151.055L301.323 154.13C299.566 154.494 297.792 154.754 296.002 154.909C294.212 155.064 292.414 155.138 290.607 155.133H288.602V151.959H290.607ZM325.628 138.649V160.395H321.866V138.649H325.628ZM328.562 146.373V149.414H324.808V146.373H328.562ZM311.034 152.157C312.907 152.169 314.598 152.13 316.106 152.041C317.614 151.948 319.126 151.776 320.639 151.528L321.029 154.635C319.493 154.89 317.963 155.055 316.438 155.133C314.918 155.21 313.117 155.243 311.034 155.232H309.145V152.157H311.034ZM319.33 140.597V143.622H312.882V153.715H309.145V140.597H319.33ZM332.199 158.257C331.785 158.257 331.401 158.157 331.047 157.959C330.699 157.754 330.423 157.478 330.219 157.13C330.014 156.782 329.915 156.401 329.92 155.986C329.915 155.577 330.014 155.202 330.219 154.859C330.423 154.517 330.699 154.246 331.047 154.047C331.401 153.843 331.785 153.74 332.199 153.74C332.597 153.74 332.967 153.843 333.31 154.047C333.652 154.246 333.928 154.519 334.138 154.867C334.354 155.21 334.464 155.583 334.47 155.986C334.464 156.395 334.357 156.773 334.147 157.122C333.942 157.47 333.666 157.746 333.318 157.95C332.97 158.155 332.597 158.257 332.199 158.257Z" fill="black"/>
<rect x="171.5" y="203.5" width="88" height="28" fill="black" stroke="black"/>
<path d="M201.899 212.353V213.489H194.65V212.353H201.899ZM203.866 217.246V218.395H193.411V217.246H203.866ZM199.309 218.036V223.14H197.886V218.036H199.309ZM202.586 213.377V213.431C202.586 213.966 202.577 214.438 202.559 214.845C202.544 215.249 202.504 215.714 202.438 216.241C202.375 216.764 202.275 217.33 202.137 217.938L200.737 217.776C200.871 217.195 200.972 216.652 201.038 216.146C201.103 215.638 201.144 215.187 201.159 214.795C201.174 214.403 201.181 213.944 201.181 213.417V213.377V212.353H202.586V213.377ZM215.101 217.264V218.395H204.646V217.264H215.101ZM210.576 215.37V217.664H209.162V215.37H210.576ZM213.844 219.298V223.176H212.448V220.42H205.804V219.298H213.844ZM213.952 214.979V216.128H205.935V214.979H213.952ZM213.849 212.12V213.242H207.344V215.603H205.935V212.12H213.849ZM224.868 211.657V223.122H223.472V211.657H224.868ZM226.637 216.227V217.39H224.559V216.227H226.637ZM222.588 213.413V214.553H215.819V213.413H222.588ZM219.244 215.294C219.788 215.294 220.279 215.41 220.716 215.644C221.156 215.874 221.5 216.194 221.749 216.604C222 217.011 222.127 217.475 222.13 217.996C222.127 218.517 222 218.982 221.749 219.392C221.5 219.799 221.156 220.118 220.716 220.348C220.279 220.578 219.788 220.694 219.244 220.694C218.69 220.694 218.193 220.578 217.753 220.348C217.314 220.118 216.968 219.799 216.717 219.392C216.468 218.982 216.345 218.517 216.348 217.996C216.345 217.478 216.468 217.014 216.717 216.604C216.968 216.191 217.314 215.87 217.753 215.639C218.193 215.409 218.69 215.294 219.244 215.294ZM219.244 216.452C218.945 216.452 218.678 216.516 218.445 216.645C218.211 216.77 218.027 216.951 217.893 217.188C217.761 217.424 217.697 217.694 217.7 217.996C217.697 218.304 217.761 218.575 217.893 218.808C218.024 219.039 218.207 219.217 218.44 219.343C218.677 219.468 218.945 219.53 219.244 219.527C219.537 219.53 219.799 219.468 220.029 219.343C220.26 219.217 220.441 219.039 220.573 218.808C220.707 218.575 220.776 218.304 220.779 217.996C220.776 217.694 220.707 217.424 220.573 217.188C220.441 216.951 220.26 216.77 220.029 216.645C219.799 216.516 219.537 216.452 219.244 216.452ZM219.94 211.819V213.866H218.53V211.819H219.94ZM236.696 211.657V223.122H235.273V211.657H236.696ZM233.276 212.874C233.276 214.071 233.104 215.169 232.76 216.169C232.415 217.165 231.848 218.081 231.058 218.916C230.271 219.751 229.23 220.478 227.934 221.098L227.193 219.967C228.292 219.443 229.185 218.846 229.873 218.175C230.564 217.505 231.07 216.754 231.39 215.922C231.714 215.09 231.877 214.153 231.88 213.112V212.874H233.276ZM232.517 212.874V213.992H227.777V212.874H232.517Z" fill="white"/>
</svg>
