<?xml version="1.0"?>
<svg width="28" height="28" xmlns="http://www.w3.org/2000/svg" xmlns:svg="http://www.w3.org/2000/svg">
 <g class="layer">
  <title>Layer 1</title>
  <path d="m9.33,21l4.67,-3.56l4.67,3.56l-1.75,-5.78l4.66,-3.32l-5.71,0l-1.87,-6.07l-1.87,6.07l-5.71,0l4.66,3.32l-1.75,5.78zm4.67,4.67c-1.61,0 -3.13,-0.31 -4.55,-0.92c-1.42,-0.61 -2.65,-1.45 -3.7,-2.5c-1.05,-1.05 -1.89,-2.28 -2.5,-3.7c-0.61,-1.42 -0.92,-2.94 -0.92,-4.55c0,-1.61 0.31,-3.13 0.92,-4.55c0.61,-1.42 1.45,-2.65 2.5,-3.7c1.05,-1.05 2.28,-1.89 3.7,-2.5c1.42,-0.61 2.94,-0.92 4.55,-0.92c1.61,0 3.13,0.31 4.55,0.92c1.42,0.61 2.65,1.45 3.7,2.5c1.05,1.05 1.89,2.28 2.5,3.7c0.61,1.42 0.92,2.94 0.92,4.55c0,1.61 -0.31,3.13 -0.92,4.55c-0.61,1.42 -1.45,2.65 -2.5,3.7c-1.05,1.05 -2.28,1.89 -3.7,2.5c-1.42,0.61 -2.94,0.92 -4.55,0.92zm0,-2.34c2.61,0 4.81,-0.9 6.62,-2.71c1.81,-1.81 2.71,-4.01 2.71,-6.62c0,-2.61 -0.9,-4.81 -2.71,-6.62c-1.81,-1.81 -4.01,-2.71 -6.62,-2.71c-2.61,0 -4.81,0.9 -6.62,2.71c-1.81,1.81 -2.71,4.01 -2.71,6.62c0,2.61 0.9,4.81 2.71,6.62c1.81,1.81 4.01,2.71 6.62,2.71z" fill="#f36523" id="svg_1"/>
  <path d="m9.33,21l4.67,-3.56l4.67,3.56l-1.75,-5.78l4.66,-3.32l-5.71,0l-1.87,-6.07l-1.87,6.07l-5.71,0l4.66,3.32l-1.75,5.78zm4.67,4.67c-1.61,0 -3.13,-0.31 -4.55,-0.92c-1.42,-0.61 -2.65,-1.45 -3.7,-2.5c-1.05,-1.05 -1.89,-2.28 -2.5,-3.7c-0.61,-1.42 -0.92,-2.94 -0.92,-4.55c0,-1.61 0.31,-3.13 0.92,-4.55c0.61,-1.42 1.45,-2.65 2.5,-3.7c1.05,-1.05 2.28,-1.89 3.7,-2.5c1.42,-0.61 2.94,-0.92 4.55,-0.92c1.61,0 3.13,0.31 4.55,0.92c1.42,0.61 2.65,1.45 3.7,2.5c1.05,1.05 1.89,2.28 2.5,3.7c0.61,1.42 0.92,2.94 0.92,4.55c0,1.61 -0.31,3.13 -0.92,4.55c-0.61,1.42 -1.45,2.65 -2.5,3.7c-1.05,1.05 -2.28,1.89 -3.7,2.5c-1.42,0.61 -2.94,0.92 -4.55,0.92zm0,-2.34c2.61,0 4.81,-0.9 6.62,-2.71c1.81,-1.81 2.71,-4.01 2.71,-6.62c0,-2.61 -0.9,-4.81 -2.71,-6.62c-1.81,-1.81 -4.01,-2.71 -6.62,-2.71c-2.61,0 -4.81,0.9 -6.62,2.71c-1.81,1.81 -2.71,4.01 -2.71,6.62c0,2.61 0.9,4.81 2.71,6.62c1.81,1.81 4.01,2.71 6.62,2.71z" fill="#f36523" id="svg_2"/>
 </g>
</svg>