<svg width="229" height="198" viewBox="0 0 229 198" fill="none" xmlns="http://www.w3.org/2000/svg">
<g clip-path="url(#clip0_210_12)">
<path d="M39.7861 150.776C39.1814 149.908 38.5948 149.031 38.0228 148.145L35.5704 148.662C36.3069 149.827 37.0692 150.978 37.8609 152.115C41.2815 157.027 45.2044 161.633 49.521 165.805C53.7962 169.938 58.4935 173.681 63.4836 176.931C68.4738 180.181 73.7973 182.964 79.3061 185.203C84.8682 187.464 90.669 189.19 96.5473 190.334C102.401 191.473 108.299 192.042 114.207 192.042C120.645 192.042 127.096 191.366 133.506 190.014C145.8 187.423 157.219 182.502 167.446 175.39C172.361 171.971 176.97 168.051 181.145 163.737C185.28 159.465 189.025 154.77 192.277 149.783C195.529 144.796 198.314 139.475 200.554 133.97C202.816 128.411 204.544 122.614 205.688 116.739C205.953 115.381 206.185 114.02 206.389 112.656L203.936 113.173C203.771 114.214 203.588 115.253 203.386 116.291C201.144 127.798 196.745 138.635 190.312 148.503C183.878 158.369 175.734 166.768 166.106 173.465C156.139 180.397 145.008 185.193 133.023 187.72C121.038 190.247 108.917 190.352 96.9969 188.033C85.4824 185.793 74.6389 181.396 64.7654 174.967C54.8927 168.537 46.4888 160.398 39.7879 150.776H39.7861Z" fill="#E8D3C0"/>
<path d="M188.807 47.2238C189.412 48.0916 189.999 48.9688 190.571 49.8547L193.023 49.3381C192.287 48.1733 191.524 47.0215 190.733 45.8851C187.312 40.9729 183.389 36.3672 179.072 32.1945C174.797 28.0622 170.1 24.3191 165.11 21.0693C160.12 17.8194 154.796 15.0362 149.287 12.797C143.725 10.5363 137.924 8.81026 132.046 7.66615C119.816 5.28666 107.381 5.39427 95.0872 7.98554C82.7931 10.5768 71.3742 15.4976 61.1475 22.6102C56.2322 26.0288 51.6237 29.9493 47.4484 34.2632C43.3136 38.5349 39.5682 43.2302 36.3164 48.2173C33.0645 53.2044 30.2796 58.5246 28.039 64.03C25.777 69.5887 24.0498 75.3859 22.905 81.2606C22.6405 82.6191 22.408 83.9801 22.2047 85.3438L24.6571 84.8272C24.8225 83.7864 25.0051 82.7473 25.2076 81.7091C27.449 70.2017 31.8482 59.3649 38.2812 49.4974C44.7151 39.6308 52.8589 31.232 62.487 24.5352C72.4544 17.6025 83.5856 12.8065 95.5704 10.2798C101.821 8.96178 108.108 8.3032 114.385 8.3032C120.144 8.3032 125.894 8.85761 131.596 9.96729C143.111 12.2073 153.954 16.6039 163.828 23.0329C173.701 29.4629 182.105 37.6017 188.806 47.2238H188.807Z" fill="#E8D3C0"/>
<path d="M19.5041 80.6012C20.6912 74.5087 22.482 68.4963 24.8285 62.73C27.1526 57.0189 30.0418 51.4998 33.4151 46.3268C36.7884 41.1537 40.6734 36.2837 44.9624 31.8518C49.2927 27.3778 54.0727 23.3119 59.1705 19.7659C69.7763 12.389 81.6198 7.28564 94.3731 4.59796C101.024 3.19557 107.714 2.49481 114.392 2.49481C120.52 2.49481 126.637 3.08538 132.706 4.26565C138.802 5.45195 144.818 7.24173 150.588 9.58678C156.303 11.9094 161.825 14.7969 167.001 18.1681C172.178 21.5393 177.051 25.4219 181.485 29.7091C185.962 34.0368 190.03 38.8138 193.579 43.9085C194.644 45.4392 195.662 46.9957 196.632 48.5771L199.22 48.0313C198.087 46.1477 196.89 44.2976 195.627 42.4838C191.988 37.2573 187.813 32.3563 183.221 27.9167C178.673 23.5193 173.674 19.5369 168.364 16.0787C163.054 12.6205 157.39 9.65996 151.528 7.27703C145.609 4.87172 139.437 3.03459 133.182 1.8173C120.169 -0.714563 106.939 -0.600065 93.8571 2.15735C80.7756 4.91476 68.6254 10.1507 57.744 17.7187C52.5144 21.3559 47.6103 25.5278 43.168 30.1172C38.7679 34.6626 34.783 39.6583 31.3236 44.9648C27.8633 50.2713 24.9009 55.9325 22.5165 61.7908C20.1097 67.706 18.2714 73.8742 17.0534 80.1251C16.6305 82.2945 16.2833 84.4708 16.0085 86.6506L18.5971 86.1048C18.846 84.2668 19.1466 82.4323 19.5033 80.6012H19.5041Z" fill="#E8D3C0"/>
<path d="M209.089 117.399C207.902 123.491 206.111 129.504 203.765 135.27C201.441 140.981 198.552 146.5 195.178 151.673C191.805 156.846 187.92 161.716 183.63 166.148C179.3 170.622 174.52 174.688 169.422 178.234C158.816 185.611 146.973 190.714 134.22 193.402C121.467 196.091 108.569 196.202 95.8866 193.734C89.7904 192.548 83.7742 190.758 78.0045 188.413C72.2899 186.091 66.7673 183.203 61.5911 179.832C56.4149 176.461 51.5418 172.578 47.1073 168.291C42.6305 163.963 38.5621 159.186 35.0139 154.091C33.9483 152.561 32.931 151.004 31.961 149.423L29.3725 149.969C30.5053 151.852 31.7026 153.702 32.9655 155.516C36.6049 160.743 40.7793 165.644 45.3715 170.083C49.9198 174.481 54.9186 178.463 60.2283 181.921C65.5381 185.379 71.2028 188.34 77.0647 190.723C82.9835 193.128 89.1555 194.965 95.4102 196.183C101.638 197.395 107.914 198 114.201 198C121.051 198 127.915 197.28 134.735 195.843C147.817 193.085 159.967 187.849 170.849 180.281C176.078 176.644 180.982 172.472 185.425 167.883C189.825 163.337 193.81 158.342 197.269 153.035C200.729 147.729 203.693 142.067 206.076 136.209C208.483 130.294 210.321 124.126 211.539 117.875C211.962 115.705 212.309 113.529 212.584 111.349L209.996 111.895C209.747 113.733 209.446 115.568 209.089 117.399Z" fill="#E8D3C0"/>
<path d="M74.471 73.0641C77.8417 67.8945 82.1091 63.4937 87.1527 59.9855C92.3746 56.3535 98.2064 53.8406 104.486 52.5174C107.761 51.8269 111.055 51.4817 114.344 51.4817C117.361 51.4817 120.373 51.7727 123.361 52.3538C129.393 53.5272 135.075 55.8309 140.248 59.1996C140.728 59.5129 141.203 59.834 141.671 60.1629L144.746 59.5146C143.707 58.7166 142.635 57.9564 141.529 57.2359C136.102 53.7011 130.14 51.2846 123.809 50.0535C117.255 48.7786 110.59 48.8354 104.002 50.2248C97.4139 51.6134 91.2935 54.2512 85.8123 58.0632C80.5189 61.7452 76.0413 66.3621 72.5052 71.7866C71.7842 72.8928 71.1106 74.0214 70.4826 75.1707L73.5579 74.5224C73.8525 74.0326 74.1574 73.5479 74.471 73.0667V73.0641Z" fill="#E8D3C0"/>
<path d="M154.122 124.936C150.752 130.105 146.484 134.506 141.44 138.014C136.218 141.646 130.386 144.159 124.106 145.483C117.827 146.807 111.476 146.862 105.231 145.646C99.1987 144.473 93.5168 142.169 88.344 138.8C87.8634 138.487 87.3887 138.166 86.921 137.837L83.8457 138.485C84.8846 139.283 85.9571 140.044 87.0631 140.764C92.49 144.299 98.4519 146.715 104.782 147.946C107.92 148.557 111.081 148.862 114.248 148.862C117.698 148.862 121.154 148.499 124.59 147.775C131.178 146.387 137.298 143.749 142.779 139.937C148.073 136.255 152.55 131.638 156.086 126.213C156.807 125.107 157.481 123.979 158.109 122.829L155.034 123.478C154.739 123.967 154.434 124.452 154.121 124.933L154.122 124.936Z" fill="#E8D3C0"/>
<path d="M17.8898 93.4499L21.4079 92.7087L23.7974 92.2051L67.0103 83.096L69.6996 82.5287L148.438 65.9317L151.127 65.3644L194.34 56.2554L196.73 55.7518L200.248 55.0105L202.776 54.4777L217.129 51.4525C217.763 51.3191 218.168 50.6966 218.034 50.0639C217.901 49.4303 217.278 49.0257 216.645 49.1591L201.654 52.3186L199.108 52.8549L195.563 53.6021L193.155 54.1092L149.199 63.3749L146.408 63.9637L70.76 79.909L67.9681 80.4979L24.0128 89.7636L21.6051 90.2706L18.0595 91.0179L15.5132 91.5542L0.929469 94.6284C0.295468 94.7619 -0.109396 95.3843 0.024123 96.017C0.140414 96.5689 0.627974 96.9477 1.17066 96.9477C1.25078 96.9477 1.33261 96.9391 1.41358 96.9218L15.3599 93.9819L17.8881 93.449L17.8898 93.4499Z" fill="#E8D3C0"/>
<path d="M228.974 101.897C228.841 101.263 228.218 100.858 227.585 100.992L213.232 104.017L210.704 104.55L207.186 105.291L204.796 105.795L161.583 114.904L158.894 115.471L80.1554 132.068L77.4661 132.636L34.2533 141.745L31.8637 142.248L28.3457 142.989L25.8174 143.522L11.8711 146.462C11.2371 146.596 10.8323 147.218 10.9658 147.851C11.0821 148.403 11.5696 148.781 12.1123 148.781C12.1924 148.781 12.2743 148.773 12.3553 148.756L26.939 145.681L29.4853 145.145L33.0309 144.398L35.4386 143.891L79.3939 134.625L82.1858 134.036L157.833 118.091L160.625 117.502L204.581 108.236L206.988 107.729L210.534 106.982L213.08 106.446L228.071 103.286C228.705 103.153 229.109 102.531 228.976 101.898L228.974 101.897Z" fill="#E8D3C0"/>
<path d="M80.3484 99.031C82.0592 98.1873 83.7062 98.462 84.3143 98.1615C84.5805 98.0307 84.6572 97.8034 84.565 97.329C84.0439 95.5083 82.7914 92.205 81.6862 89.7748C81.2365 88.7684 80.9359 88.35 79.9315 88.2312C78.1311 88.2217 74.7328 89.2832 70.7798 91.2322C69.4093 91.908 68.1801 92.5838 67.0998 93.2269C66.1333 93.8029 65.2891 94.3521 64.5742 94.8514C63.4509 95.6357 62.6481 96.2951 62.2018 96.7367C61.7255 97.2076 61.6092 97.6433 61.6445 98.0978C62.1829 100.241 64.0315 105.422 64.6879 106.752C64.8085 106.996 64.9472 107.138 65.0936 107.202C65.2444 107.267 65.4029 107.25 65.557 107.174C66.0412 106.936 66.5563 106.377 67.2428 105.767C67.795 105.277 68.4583 104.752 69.3059 104.334C70.0657 103.96 70.424 104.302 70.7057 104.872C71.3242 106.126 72.8326 111.287 76.2636 118.237C77.1258 119.985 77.933 121.523 78.4972 122.378C79.0985 123.31 79.7428 123.37 80.4078 123.089C81.7559 122.566 83.6941 121.705 85.1766 120.974C87.039 120.056 88.9022 119.043 89.6818 118.516C90.3098 118.065 90.4442 117.668 90.1823 117.136C89.4889 115.731 84.4194 110.154 80.5568 102.329C80.2002 101.608 79.9952 101 79.8651 100.544C79.661 99.7481 79.7773 99.3125 80.3475 99.0319L80.3484 99.031Z" fill="#E8D3C0"/>
<path d="M93.2076 118.401C94.3567 118.007 95.4507 117.566 96.4534 117.16C97.4561 116.755 98.3683 116.387 99.0729 116.032C99.7474 115.688 99.8801 115.317 99.7199 114.922C99.4744 114.315 95.9693 109.583 94.7288 106.515C94.1026 104.966 94.2525 104.375 94.7082 104.191C95.1638 104.007 95.6032 104.219 95.8762 104.108C96.1502 103.997 96.344 103.778 96.3052 103.157C96.2777 102.391 95.8168 100.987 95.2638 99.6207C93.9863 96.4621 93.18 95.6925 92.5719 95.9378C91.9335 96.1952 91.6631 97.0122 91.3848 97.5477C91.2461 97.8163 91.1126 98.0108 90.961 98.0728C90.8094 98.1339 90.6078 98.0745 90.4424 97.7526C90.24 97.3393 90.0324 97.1758 89.6732 97.2507C89.2106 97.3316 88.5301 97.5709 87.8315 97.8533C86.616 98.344 85.3584 98.994 84.9819 99.2867C84.7752 99.4761 84.6365 99.7446 84.6994 100.249C84.8562 101.423 85.6202 104.011 87.7574 109.296C89.4277 113.427 91.0041 116.535 91.9947 117.937C92.3246 118.404 92.7398 118.555 93.2076 118.401Z" fill="#E8D3C0"/>
<path d="M101.939 114.484C102.984 114.368 104.184 114.19 105.41 113.976C106.637 113.761 107.827 113.52 108.816 113.28C109.165 113.185 109.427 112.973 109.354 112.554C109.122 111.231 107.157 106.287 105.861 98.8976C105.504 96.865 105.202 94.1903 105.066 93.4163C104.993 92.9971 104.657 92.7896 104.102 92.8533C103.154 92.9523 102.309 93.0677 101.469 93.2149C100.662 93.3561 99.8284 93.5351 98.8714 93.7701C98.457 93.876 98.0927 94.0723 98.0823 94.7731C98.0573 98.2364 98.5079 102.514 99.209 106.516C99.6673 109.129 100.238 111.623 100.87 113.707C101.096 114.433 101.61 114.509 101.938 114.485L101.939 114.484Z" fill="#E8D3C0"/>
<path d="M169.435 92.0492C169.925 92.0905 170.221 92.4779 170.515 92.5029C170.809 92.5279 171.081 92.4194 171.327 91.8486C171.65 91.1522 171.873 89.6921 171.998 88.2235C172.286 84.829 171.915 83.7778 171.262 83.7227C170.576 83.6642 169.966 84.2703 169.475 84.6232C169.229 84.7997 169.022 84.9134 168.859 84.8996C168.695 84.8858 168.543 84.7412 168.541 84.3796C168.547 83.9199 168.436 83.6806 168.082 83.5841C167.633 83.4473 166.917 83.3534 166.166 83.2897C164.859 83.1787 163.444 83.1899 162.975 83.282C162.706 83.3577 162.46 83.5342 162.288 84.0129C162.223 84.1988 162.155 84.4278 162.085 84.705C161.801 85.8345 161.48 87.7792 161.153 91.0015C161.078 91.7514 161.002 92.5701 160.925 93.4637C160.548 97.9024 160.548 101.388 160.798 103.086C160.877 103.615 161.146 103.93 161.578 104.03C161.608 104.037 161.639 104.043 161.67 104.048C162.433 104.155 163.185 104.234 163.908 104.3C164.325 104.339 164.733 104.374 165.127 104.407C166.205 104.498 167.185 104.582 167.974 104.583C168.731 104.581 169.017 104.31 169.053 103.886C169.108 103.233 168.122 97.4289 168.402 94.1317C168.543 92.4668 168.945 92.0079 169.434 92.0492H169.435Z" fill="#E8D3C0"/>
<path d="M100.92 91.7574C101.724 92.2343 102.75 91.7014 102.823 90.77C102.972 88.8476 103.07 86.0523 102.514 84.9814C101.631 83.2829 99.539 82.6217 97.8394 83.5032C96.1398 84.3848 95.4783 86.4767 96.3603 88.1753C96.916 89.2453 99.2616 90.7734 100.92 91.7574ZM98.9101 85.5659C99.47 85.2758 100.159 85.4936 100.45 86.0532C100.741 86.6128 100.523 87.3015 99.9628 87.5924C99.4029 87.8826 98.7137 87.6648 98.4226 87.1052C98.1323 86.5456 98.3502 85.8569 98.9101 85.5659Z" fill="#E8D3C0"/>
<path d="M152.512 96.9485C155.221 95.6305 158.822 93.7641 157.727 88.3707C156.958 84.5819 153.946 83.2544 150.38 83.9776C145.402 84.9874 141.748 89.0706 143.456 97.4823C144.499 102.619 147.422 106.973 153.59 105.723C157.606 104.908 160.728 101.836 159.9 97.7578C159.567 96.1204 159.025 95.2612 158.543 95.3593C158.383 95.392 158.21 95.5272 158.024 95.7657C156.889 97.0992 154.714 98.4095 152.626 98.8321C151.566 99.0474 151.09 98.8425 150.992 98.3612C150.888 97.8473 151.324 97.5253 152.512 96.9503V96.9485ZM150.534 87.2842L150.584 87.2739C150.734 87.2421 150.881 87.3385 150.913 87.4883L151.05 88.1374C151.082 88.2872 150.985 88.4344 150.835 88.4662L150.785 88.4766C150.635 88.5084 150.488 88.412 150.456 88.2622L150.319 87.6131C150.287 87.4633 150.384 87.3161 150.534 87.2842ZM148.837 87.9256C148.805 87.7758 148.901 87.6286 149.051 87.5967L149.101 87.5864C149.251 87.5546 149.398 87.651 149.43 87.8008L149.567 88.4499C149.599 88.5997 149.503 88.7469 149.353 88.7787L149.303 88.7891C149.153 88.8209 149.006 88.7245 148.974 88.5747L148.837 87.9256ZM150.218 92.7345C149.987 92.9153 149.749 93.0634 149.492 93.1159C149.236 93.1675 149.125 92.9566 149.067 92.6674C149.067 92.6674 149.067 92.6665 149.067 92.6656C149.067 92.6648 149.067 92.6639 149.067 92.6622C148.78 91.2495 149.451 89.7765 150.479 89.5682C151.185 89.4253 151.636 89.835 151.748 90.3808C151.748 90.3808 151.748 90.3826 151.748 90.3834C151.748 90.3843 151.748 90.3851 151.748 90.386C151.943 91.3493 150.961 92.1164 150.218 92.7354V92.7345Z" fill="#E8D3C0"/>
<path d="M134.122 103.449C134.742 103.384 135.78 105.746 137.116 105.606C139.138 105.394 142.874 101.742 142.041 93.7925C141.577 89.3615 139.099 86.1625 131.34 86.9752C125.276 87.6105 124.672 88.7606 125.625 97.8507C126.059 101.988 126.703 105.61 127.732 108.203C128.221 109.404 128.603 109.594 129.125 109.539C130.168 109.43 132.566 108.718 134.096 108.228C134.575 108.079 134.88 107.849 134.843 107.491C134.796 107.035 134.005 106.097 133.786 104.011C133.755 103.718 133.862 103.476 134.123 103.449H134.122ZM133.895 91.9846L133.945 91.9743C134.095 91.9425 134.242 92.0389 134.274 92.1887L134.411 92.8378C134.443 92.9876 134.346 93.1348 134.196 93.1666L134.146 93.177C133.996 93.2088 133.849 93.1124 133.817 92.9626L133.68 92.3135C133.648 92.1637 133.745 92.0165 133.895 91.9846ZM132.413 92.2971L132.463 92.2868C132.613 92.255 132.76 92.3514 132.792 92.5012L132.929 93.1503C132.961 93.3001 132.864 93.4473 132.715 93.4791L132.665 93.4895C132.515 93.5213 132.367 93.4249 132.336 93.2751L132.199 92.626C132.167 92.4762 132.263 92.329 132.413 92.2971ZM132.908 97.2197C132.812 96.296 132.751 95.5272 132.721 94.8884C131.702 94.7412 131.001 94.0275 130.967 93.9914C130.877 93.8975 130.88 93.7495 130.974 93.6591C131.068 93.5695 131.216 93.5721 131.306 93.6651C131.315 93.6737 132.171 94.5432 133.278 94.4373C134.089 94.3607 134.847 93.7856 135.535 92.7319C135.606 92.6234 135.751 92.5924 135.86 92.663C135.97 92.7336 136 92.8791 135.929 92.9884C135.55 93.5695 135.145 94.0163 134.717 94.3357C134.791 95.0434 134.84 95.6882 134.866 96.2719C135.033 98.5678 134.785 99.8764 134.102 100.033C134.089 100.039 134.074 100.041 134.059 100.045C134.056 100.045 134.052 100.048 134.049 100.048C134.012 100.059 133.975 100.072 133.934 100.076C133.445 100.127 133.163 99.6302 132.909 97.2188L132.908 97.2197Z" fill="#E8D3C0"/>
<path d="M118.709 105.568C119.279 105.317 120.988 107.25 122.219 106.709C124.08 105.892 126.524 101.275 123.307 93.9578C121.514 89.8789 118.178 87.5872 111.036 90.7243C105.454 93.1761 105.229 94.4554 108.909 102.823C110.585 106.632 112.302 109.885 114.074 112.042C114.905 113.036 115.328 113.101 115.808 112.89C116.768 112.469 118.834 111.06 120.142 110.128C120.553 109.84 120.774 109.529 120.629 109.198C120.445 108.778 119.406 108.125 118.562 106.206C118.443 105.936 118.47 105.674 118.711 105.569L118.709 105.568ZM117.403 93.4688L117.453 93.4585C117.603 93.4266 117.75 93.523 117.782 93.6728L117.919 94.3219C117.951 94.4717 117.854 94.6189 117.704 94.6508L117.654 94.6611C117.505 94.693 117.357 94.5965 117.325 94.4467L117.188 93.7976C117.157 93.6479 117.253 93.5006 117.403 93.4688ZM114.403 95.4729C114.337 95.4867 114.266 95.4617 114.223 95.4041C114.167 95.3248 114.184 95.2155 114.262 95.1578L114.965 94.6473L114.031 94.3934C113.938 94.3675 113.882 94.2711 113.908 94.1773C113.934 94.0835 114.03 94.0284 114.124 94.0533L115.413 94.4046C115.479 94.4226 115.528 94.476 115.54 94.5432C115.552 94.6095 115.525 94.6775 115.47 94.7171L114.469 95.4437C114.448 95.4583 114.425 95.4686 114.402 95.4738L114.403 95.4729ZM117.331 99.7627C116.505 99.9366 115.694 99.4089 115.52 98.5833L115.152 96.8409C115.115 96.6661 115.227 96.4948 115.402 96.4578L117.76 95.9611C117.934 95.924 118.106 96.0359 118.143 96.2107L118.511 97.9531C118.685 98.7787 118.157 99.5888 117.331 99.7627Z" fill="#E8D3C0"/>
<path d="M83.1402 154.298L80.5973 153.088C80.4104 152.999 80.2381 153.06 80.1494 153.246L72.2838 169.755C72.1951 169.942 72.2563 170.114 72.4432 170.203L83.5494 175.488C83.7363 175.577 83.9086 175.515 83.9973 175.329L85.1413 172.928C85.23 172.741 85.1689 172.569 84.9828 172.48L76.7227 168.549L83.2996 154.745C83.3883 154.558 83.3272 154.386 83.1411 154.297L83.1402 154.298Z" fill="#E8D3C0"/>
<path d="M89.0323 167.755C87.816 173.57 90.9636 178.212 96.3767 179.342C101.79 180.473 106.535 177.48 107.751 171.666C108.967 165.851 105.82 161.209 100.406 160.079C94.9933 158.948 90.2486 161.941 89.0323 167.755ZM104.21 170.926C103.443 174.592 100.642 176.751 97.0753 176.005C93.5091 175.261 91.8078 172.161 92.5744 168.495C93.3411 164.829 96.1424 162.67 99.7087 163.416C103.275 164.161 104.976 167.26 104.21 170.926Z" fill="#E8D3C0"/>
<path d="M119.401 177.51C117.029 177.68 115.112 176.237 114.847 172.527L114.114 162.274C114.099 162.068 113.962 161.949 113.755 161.963L110.945 162.164C110.739 162.179 110.619 162.316 110.634 162.523L111.411 173.394C111.84 179.396 115.931 181.176 119.643 180.911C123.354 180.646 127.177 178.302 126.748 172.3L125.971 161.429C125.957 161.222 125.819 161.103 125.612 161.118L122.802 161.319C122.596 161.333 122.477 161.471 122.491 161.678L123.224 171.931C123.489 175.64 121.745 177.344 119.4 177.512L119.401 177.51Z" fill="#E8D3C0"/>
<path d="M145.592 174.655L148.378 173.697C148.573 173.63 148.653 173.466 148.586 173.27L142.631 155.98C142.564 155.785 142.399 155.705 142.204 155.772L139.663 156.647C139.467 156.714 139.387 156.878 139.454 157.074L143.686 169.357L131.406 159.733C131.258 159.62 131.111 159.589 130.939 159.648L128.129 160.614C127.934 160.682 127.854 160.846 127.921 161.041L133.876 178.331C133.943 178.527 134.108 178.607 134.303 178.54L136.844 177.665C137.04 177.598 137.12 177.433 137.053 177.238L132.814 164.93L145.126 174.57C145.274 174.683 145.421 174.714 145.593 174.655H145.592Z" fill="#E8D3C0"/>
<path d="M151.243 149.585C146.769 152.699 145.775 158.144 149.173 163.018C152.57 167.892 157.875 168.952 162.456 165.763C167.142 162.501 167.583 157.756 164.88 153.878L163.654 152.119C163.536 151.95 163.356 151.918 163.186 152.036L156.697 156.553C156.528 156.671 156.496 156.851 156.614 157.02L158.076 159.118C158.194 159.288 158.374 159.32 158.544 159.202L162.425 156.5L162.521 156.684C163.738 159.017 162.796 161.372 160.591 162.907C157.622 164.974 154.372 164.152 152.157 160.973C149.941 157.793 150.245 154.434 153.235 152.353C154.995 151.128 156.878 150.982 158.61 151.886C158.777 151.99 158.948 151.965 159.067 151.82L160.893 149.605C161.034 149.444 160.993 149.252 160.811 149.126C157.926 147.2 154.508 147.313 151.243 149.586V149.585Z" fill="#E8D3C0"/>
<path d="M169.959 135.947L167.983 134.244C167.826 134.109 167.644 134.122 167.509 134.279L159.676 143.352C159.541 143.509 159.555 143.69 159.711 143.825L173.565 155.77C173.721 155.905 173.903 155.892 174.038 155.736L182.074 146.428C182.209 146.271 182.195 146.09 182.039 145.954L180.063 144.251C179.906 144.116 179.725 144.129 179.589 144.286L173.614 151.208L169.935 148.037L175.151 141.994C175.287 141.838 175.273 141.656 175.117 141.521L173.18 139.851C173.023 139.716 172.841 139.729 172.706 139.886L167.489 145.929L164.222 143.111L169.995 136.424C170.13 136.267 170.116 136.085 169.96 135.95L169.959 135.947Z" fill="#E8D3C0"/>
<path d="M53.6807 50.8628L51.2851 49.2185C51.0956 49.0885 50.8958 49.1255 50.7649 49.3149L41.1842 63.2518C41.0541 63.4412 41.1075 63.6177 41.2971 63.7476L43.6926 65.3919C43.8822 65.5219 44.0665 65.509 44.1966 65.3188L47.8955 59.9382L61.983 69.6103C62.1726 69.7403 62.3733 69.7032 62.5033 69.5138L64.2796 66.9303C64.4096 66.7409 64.3726 66.5404 64.1831 66.4104L50.0955 56.7383L53.7781 51.3819C53.9082 51.1925 53.8711 50.9928 53.6816 50.8619L53.6807 50.8628Z" fill="#E8D3C0"/>
<path d="M70.1372 59.4208L72.5715 57.4451C72.7507 57.3005 72.7714 57.0982 72.6258 56.9191L68.8347 52.254L71.0684 50.4409C71.5155 50.0785 71.8988 49.7299 72.2649 49.3588L78.8185 52.0413C78.9942 52.1205 79.1605 52.0973 79.3173 51.9699L82.0643 49.7402C82.2874 49.5585 82.2504 49.3304 81.9747 49.2202L74.3797 46.1227C75.1756 43.7725 74.5562 41.4593 72.9239 39.4509C69.9124 35.7456 66.3142 35.3316 61.7797 39.0118L56.8206 43.0365C56.6423 43.1811 56.6207 43.3834 56.7663 43.5625L69.6091 59.3675C69.7539 59.5457 69.9563 59.5672 70.1355 59.4217L70.1372 59.4208ZM66.5684 49.463L61.8159 43.6141L63.9376 41.8924C66.3056 39.9709 68.1292 39.9347 69.7987 41.9888C71.4672 44.0429 71.058 45.8197 68.69 47.7412L66.5684 49.463Z" fill="#E8D3C0"/>
<path d="M78.2922 28.3566L75.5012 29.7866C75.2962 29.8916 75.2342 30.0853 75.3393 30.2902L84.6348 48.4075C84.7399 48.6124 84.9337 48.6744 85.1378 48.5694L87.9288 47.1394C88.1338 47.0344 88.1959 46.8407 88.0908 46.6358L78.7953 28.5185C78.6902 28.3136 78.4963 28.2516 78.2913 28.3566H78.2922Z" fill="#E8D3C0"/>
<path d="M102.4 27.8359C101.146 23.3489 97.7016 21.5041 92.3531 22.9968L86.2008 24.7143C85.9795 24.7763 85.8795 24.9536 85.9415 25.1749L91.4227 44.7841C91.4848 45.0054 91.6622 45.1052 91.8836 45.0432L94.9046 44.1996C95.1259 44.1376 95.2259 43.9602 95.1638 43.739L93.5461 37.9504L96.3173 37.1765C101.666 35.6828 103.654 32.3211 102.4 27.835V27.8359ZM92.5779 34.4896L90.5493 27.2332L93.1817 26.4981C95.9529 25.7241 97.8222 26.4266 98.4958 28.8362C99.2159 31.412 97.9815 32.9805 95.2104 33.7544L92.5779 34.4896Z" fill="#E8D3C0"/>
<path d="M111.998 40.892C112.228 40.892 112.373 40.7491 112.373 40.5192L112.387 34.5094L115.264 34.5163C120.818 34.5292 123.644 31.8329 123.654 27.1747C123.665 22.5164 120.851 19.8064 115.299 19.7934L108.911 19.7788C108.681 19.7788 108.536 19.9217 108.536 20.1516L108.489 40.5106C108.489 40.7405 108.632 40.8851 108.862 40.8851L111.998 40.892ZM112.414 23.3807L115.147 23.3868C118.024 23.3937 119.633 24.5765 119.627 27.0782C119.621 29.7522 118.007 30.9281 115.13 30.9212L112.396 30.9152L112.415 23.3807H112.414Z" fill="#E8D3C0"/>
<path d="M143.917 28.3601C144.139 28.4221 144.316 28.3231 144.379 28.1019L145.166 25.3057C145.228 25.0845 145.129 24.9071 144.908 24.8443L132.056 21.2311C131.834 21.1692 131.657 21.2682 131.594 21.4894L126.077 41.0883C126.015 41.3095 126.114 41.4869 126.335 41.5497L139.52 45.2567C139.741 45.3187 139.919 45.2197 139.981 44.9984L140.769 42.2023C140.831 41.981 140.732 41.8037 140.51 41.7409L130.705 38.9843L132.17 33.7803L140.729 36.1864C140.951 36.2484 141.128 36.1494 141.19 35.9282L141.962 33.188C142.024 32.9667 141.925 32.7894 141.703 32.7265L133.144 30.3204L134.446 25.6974L143.919 28.361L143.917 28.3601Z" fill="#E8D3C0"/>
<path d="M152.294 52.6663L155.311 54.5147C155.557 54.6653 155.76 54.5534 155.773 54.2573L156.17 46.0694C158.653 46.0384 160.63 44.6859 161.982 42.4786C164.478 38.4084 163.672 34.8796 158.691 31.8295L153.245 28.4936C153.048 28.373 152.85 28.4212 152.73 28.6167L142.086 45.9764C141.965 46.1727 142.013 46.3707 142.209 46.4904L144.883 48.1278C145.079 48.2483 145.277 48.2009 145.397 48.0046L148.54 42.8798L150.993 44.382C151.484 44.6825 151.94 44.9287 152.412 45.15L152.059 52.2187C152.043 52.4107 152.121 52.5596 152.292 52.6646L152.294 52.6663ZM150.42 39.8159L154.359 33.392L156.69 34.8193C159.291 36.412 159.931 38.1191 158.548 40.3755C157.165 42.631 155.353 42.8359 152.752 41.2433L150.421 39.8159H150.42Z" fill="#E8D3C0"/>
</g>
<defs>
<clipPath id="clip0_210_12">
<rect width="229" height="198" fill="white"/>
</clipPath>
</defs>
</svg>
