<svg width="28" height="28" viewBox="0 0 28 28" fill="none" xmlns="http://www.w3.org/2000/svg">
<path d="M14 24.5L12.3083 22.9833C10.3445 21.2139 8.72084 19.6875 7.43751 18.4042C6.15418 17.1208 5.13334 15.9736 4.37501 14.9625C3.61668 13.932 3.08195 12.9889 2.77084 12.1333C2.47918 11.2778 2.33334 10.4028 2.33334 9.50834C2.33334 7.68056 2.94584 6.15418 4.17084 4.92918C5.39584 3.70417 6.92223 3.09167 8.75001 3.09167C9.76112 3.09167 10.7236 3.30556 11.6375 3.73334C12.5514 4.16112 13.3389 4.7639 14 5.54168C14.6611 4.7639 15.4486 4.16112 16.3625 3.73334C17.2764 3.30556 18.2389 3.09167 19.25 3.09167C21.0778 3.09167 22.6042 3.70417 23.8292 4.92918C25.0542 6.15418 25.6667 7.68056 25.6667 9.50834C25.6667 10.4028 25.5111 11.2778 25.2 12.1333C24.9083 12.9889 24.3833 13.932 23.625 14.9625C22.8667 15.9736 21.8458 17.1208 20.5625 18.4042C19.2792 19.6875 17.6556 21.2139 15.6917 22.9833L14 24.5ZM14 21.35C15.8667 19.6778 17.4028 18.2486 18.6083 17.0625C19.8139 15.857 20.7667 14.8167 21.4667 13.9417C22.1667 13.0472 22.6528 12.2597 22.925 11.5792C23.1972 10.8792 23.3333 10.1889 23.3333 9.50834C23.3333 8.34168 22.9445 7.36945 22.1667 6.59168C21.3889 5.8139 20.4167 5.42501 19.25 5.42501C18.3361 5.42501 17.4903 5.68751 16.7125 6.21251C15.9347 6.71806 15.4 7.36945 15.1083 8.16668H12.8917C12.6 7.36945 12.0653 6.71806 11.2875 6.21251C10.5097 5.68751 9.6639 5.42501 8.75001 5.42501C7.58334 5.42501 6.61112 5.8139 5.83334 6.59168C5.05557 7.36945 4.66668 8.34168 4.66668 9.50834C4.66668 10.1889 4.80279 10.8792 5.07501 11.5792C5.34723 12.2597 5.83334 13.0472 6.53334 13.9417C7.23334 14.8167 8.18612 15.857 9.39168 17.0625C10.5972 18.2486 12.1333 19.6778 14 21.35Z" fill="#1D1B20"/>
</svg>
