<svg width="28" height="28" viewBox="0 0 28 28" fill="none" xmlns="http://www.w3.org/2000/svg">
<path d="M9.33334 21L14 17.4417L18.6667 21L16.9167 15.225L21.5833 11.9H15.8667L14 5.83337L12.1333 11.9H6.41668L11.0833 15.225L9.33334 21ZM14 25.6667C12.3861 25.6667 10.8695 25.3605 9.45001 24.748C8.03057 24.1355 6.79584 23.3042 5.74584 22.2542C4.69584 21.2042 3.86459 19.9695 3.25209 18.55C2.63959 17.1306 2.33334 15.6139 2.33334 14C2.33334 12.3862 2.63959 10.8695 3.25209 9.45004C3.86459 8.0306 4.69584 6.79587 5.74584 5.74587C6.79584 4.69587 8.03057 3.86462 9.45001 3.25212C10.8695 2.63962 12.3861 2.33337 14 2.33337C15.6139 2.33337 17.1306 2.63962 18.55 3.25212C19.9695 3.86462 21.2042 4.69587 22.2542 5.74587C23.3042 6.79587 24.1354 8.0306 24.7479 9.45004C25.3604 10.8695 25.6667 12.3862 25.6667 14C25.6667 15.6139 25.3604 17.1306 24.7479 18.55C24.1354 19.9695 23.3042 21.2042 22.2542 22.2542C21.2042 23.3042 19.9695 24.1355 18.55 24.748C17.1306 25.3605 15.6139 25.6667 14 25.6667ZM14 23.3334C16.6056 23.3334 18.8125 22.4292 20.6208 20.6209C22.4292 18.8125 23.3333 16.6056 23.3333 14C23.3333 11.3945 22.4292 9.18754 20.6208 7.37921C18.8125 5.57087 16.6056 4.66671 14 4.66671C11.3945 4.66671 9.18751 5.57087 7.37918 7.37921C5.57084 9.18754 4.66668 11.3945 4.66668 14C4.66668 16.6056 5.57084 18.8125 7.37918 20.6209C9.18751 22.4292 11.3945 23.3334 14 23.3334Z" fill="#1D1B20"/>
<path d="M9.33334 21L14 17.4417L18.6667 21L16.9167 15.225L21.5833 11.9H15.8667L14 5.83337L12.1333 11.9H6.41668L11.0833 15.225L9.33334 21ZM14 25.6667C12.3861 25.6667 10.8695 25.3605 9.45001 24.748C8.03057 24.1355 6.79584 23.3042 5.74584 22.2542C4.69584 21.2042 3.86459 19.9695 3.25209 18.55C2.63959 17.1306 2.33334 15.6139 2.33334 14C2.33334 12.3862 2.63959 10.8695 3.25209 9.45004C3.86459 8.0306 4.69584 6.79587 5.74584 5.74587C6.79584 4.69587 8.03057 3.86462 9.45001 3.25212C10.8695 2.63962 12.3861 2.33337 14 2.33337C15.6139 2.33337 17.1306 2.63962 18.55 3.25212C19.9695 3.86462 21.2042 4.69587 22.2542 5.74587C23.3042 6.79587 24.1354 8.0306 24.7479 9.45004C25.3604 10.8695 25.6667 12.3862 25.6667 14C25.6667 15.6139 25.3604 17.1306 24.7479 18.55C24.1354 19.9695 23.3042 21.2042 22.2542 22.2542C21.2042 23.3042 19.9695 24.1355 18.55 24.748C17.1306 25.3605 15.6139 25.6667 14 25.6667ZM14 23.3334C16.6056 23.3334 18.8125 22.4292 20.6208 20.6209C22.4292 18.8125 23.3333 16.6056 23.3333 14C23.3333 11.3945 22.4292 9.18754 20.6208 7.37921C18.8125 5.57087 16.6056 4.66671 14 4.66671C11.3945 4.66671 9.18751 5.57087 7.37918 7.37921C5.57084 9.18754 4.66668 11.3945 4.66668 14C4.66668 16.6056 5.57084 18.8125 7.37918 20.6209C9.18751 22.4292 11.3945 23.3334 14 23.3334Z" fill="black" fill-opacity="0.2"/>
</svg>
